<mxfile host="app.diagrams.net" modified="2024-01-01T19:12:02.485Z" agent="Mozilla/5.0 (Windows NT 10.0; Win64; x64) AppleWebKit/537.36 (KHTML, like Gecko) Chrome/120.0.0.0 Safari/537.36" etag="nr6Py5Xrl1GYjOtZXLLQ" version="22.1.16" type="device">
  <diagram id="4L4DDIKQ3bU_2eWGtAkO" name="Page-1">
    <mxGraphModel dx="494" dy="263" grid="1" gridSize="10" guides="0" tooltips="1" connect="0" arrows="0" fold="1" page="1" pageScale="1" pageWidth="4681" pageHeight="3300" math="0" shadow="0">
      <root>
        <mxCell id="0" />
        <mxCell id="1" parent="0" />
        <mxCell id="dIx1owEwMWt9nK3Hzq4R-2" value="2" style="endArrow=classicThin;html=1;curved=1;endFill=1;fillColor=#dae8fc;strokeColor=#6c8ebf;fontColor=#6C8EBF;" parent="1" edge="1">
          <mxGeometry x="-0.0616" y="-28" width="50" height="50" relative="1" as="geometry">
            <mxPoint x="80" y="160" as="sourcePoint" />
            <mxPoint x="400" y="160" as="targetPoint" />
            <Array as="points">
              <mxPoint x="240" y="100" />
            </Array>
            <mxPoint as="offset" />
          </mxGeometry>
        </mxCell>
        <mxCell id="dIx1owEwMWt9nK3Hzq4R-3" value="1" style="endArrow=classicThin;html=1;curved=1;endFill=1;fillColor=#ffe6cc;strokeColor=#d79b00;fontColor=#D79B00;" parent="1" edge="1">
          <mxGeometry width="50" height="50" relative="1" as="geometry">
            <mxPoint x="400" y="160" as="sourcePoint" />
            <mxPoint x="80" y="160" as="targetPoint" />
          </mxGeometry>
        </mxCell>
        <mxCell id="dIx1owEwMWt9nK3Hzq4R-4" value="" style="endArrow=classicThin;html=1;curved=1;fillColor=#ffe6cc;strokeColor=#d79b00;startArrow=baseDash;startFill=0;endFill=1;" parent="1" edge="1">
          <mxGeometry width="50" height="50" relative="1" as="geometry">
            <mxPoint x="80" y="280" as="sourcePoint" />
            <mxPoint x="240" y="200" as="targetPoint" />
          </mxGeometry>
        </mxCell>
        <mxCell id="dIx1owEwMWt9nK3Hzq4R-14" value="b" style="edgeLabel;html=1;align=center;verticalAlign=middle;resizable=0;points=[];fontColor=#D79B00;" parent="dIx1owEwMWt9nK3Hzq4R-4" vertex="1" connectable="0">
          <mxGeometry x="0.152" relative="1" as="geometry">
            <mxPoint x="-13" y="6" as="offset" />
          </mxGeometry>
        </mxCell>
        <mxCell id="dIx1owEwMWt9nK3Hzq4R-16" value="" style="endArrow=classic;html=1;fontColor=#D79B00;curved=1;fillColor=#ffe6cc;strokeColor=#d79b00;dashed=1;" parent="1" edge="1">
          <mxGeometry width="50" height="50" relative="1" as="geometry">
            <mxPoint x="230" y="370" as="sourcePoint" />
            <mxPoint x="290" y="340" as="targetPoint" />
          </mxGeometry>
        </mxCell>
        <mxCell id="dIx1owEwMWt9nK3Hzq4R-22" value="" style="endArrow=classicThin;html=1;curved=1;fillColor=#dae8fc;strokeColor=#6c8ebf;startArrow=baseDash;startFill=0;fontColor=#D79B00;endFill=1;" parent="1" edge="1">
          <mxGeometry width="50" height="50" relative="1" as="geometry">
            <mxPoint x="600" y="320" as="sourcePoint" />
            <mxPoint x="840" y="400" as="targetPoint" />
          </mxGeometry>
        </mxCell>
        <mxCell id="dIx1owEwMWt9nK3Hzq4R-23" value="a" style="edgeLabel;html=1;align=center;verticalAlign=middle;resizable=0;points=[];fontColor=#6C8EBF;" parent="dIx1owEwMWt9nK3Hzq4R-22" vertex="1" connectable="0">
          <mxGeometry x="0.1049" relative="1" as="geometry">
            <mxPoint x="-35" y="-13" as="offset" />
          </mxGeometry>
        </mxCell>
        <mxCell id="dIx1owEwMWt9nK3Hzq4R-27" value="" style="endArrow=classicThin;html=1;curved=1;fillColor=#ffe6cc;strokeColor=#d79b00;startArrow=baseDash;startFill=0;endFill=1;" parent="1" edge="1">
          <mxGeometry width="50" height="50" relative="1" as="geometry">
            <mxPoint x="600" y="280" as="sourcePoint" />
            <mxPoint x="760" y="200" as="targetPoint" />
          </mxGeometry>
        </mxCell>
        <mxCell id="dIx1owEwMWt9nK3Hzq4R-28" value="b" style="edgeLabel;html=1;align=center;verticalAlign=middle;resizable=0;points=[];fontColor=#D79B00;" parent="dIx1owEwMWt9nK3Hzq4R-27" vertex="1" connectable="0">
          <mxGeometry x="0.152" relative="1" as="geometry">
            <mxPoint x="-13" y="6" as="offset" />
          </mxGeometry>
        </mxCell>
        <mxCell id="dIx1owEwMWt9nK3Hzq4R-34" value="" style="endArrow=classicThin;html=1;curved=1;endFill=1;fillColor=#dae8fc;strokeColor=#6c8ebf;" parent="1" edge="1">
          <mxGeometry width="50" height="50" relative="1" as="geometry">
            <mxPoint x="120" y="710" as="sourcePoint" />
            <mxPoint x="400" y="720" as="targetPoint" />
            <Array as="points">
              <mxPoint x="260" y="640" />
            </Array>
          </mxGeometry>
        </mxCell>
        <mxCell id="dIx1owEwMWt9nK3Hzq4R-40" value="2" style="edgeLabel;html=1;align=center;verticalAlign=middle;resizable=0;points=[];fontColor=#6C8EBF;" parent="dIx1owEwMWt9nK3Hzq4R-34" vertex="1" connectable="0">
          <mxGeometry x="-0.5027" y="-12" relative="1" as="geometry">
            <mxPoint x="64" y="-9" as="offset" />
          </mxGeometry>
        </mxCell>
        <mxCell id="dIx1owEwMWt9nK3Hzq4R-35" value="" style="endArrow=classicThin;html=1;curved=1;endFill=1;fillColor=#ffe6cc;strokeColor=#d79b00;" parent="1" edge="1">
          <mxGeometry width="50" height="50" relative="1" as="geometry">
            <mxPoint x="240" y="710" as="sourcePoint" />
            <mxPoint x="120" y="710" as="targetPoint" />
          </mxGeometry>
        </mxCell>
        <mxCell id="dIx1owEwMWt9nK3Hzq4R-39" value="1" style="edgeLabel;html=1;align=center;verticalAlign=middle;resizable=0;points=[];fontColor=#D79B00;" parent="dIx1owEwMWt9nK3Hzq4R-35" vertex="1" connectable="0">
          <mxGeometry x="-0.1333" relative="1" as="geometry">
            <mxPoint as="offset" />
          </mxGeometry>
        </mxCell>
        <mxCell id="dIx1owEwMWt9nK3Hzq4R-36" value="" style="endArrow=classicThin;html=1;curved=1;endFill=1;fillColor=#ffe6cc;strokeColor=#d79b00;" parent="1" edge="1">
          <mxGeometry width="50" height="50" relative="1" as="geometry">
            <mxPoint x="400" y="720" as="sourcePoint" />
            <mxPoint x="80" y="720" as="targetPoint" />
          </mxGeometry>
        </mxCell>
        <mxCell id="dIx1owEwMWt9nK3Hzq4R-41" value="3" style="edgeLabel;html=1;align=center;verticalAlign=middle;resizable=0;points=[];fontColor=#D79B00;" parent="dIx1owEwMWt9nK3Hzq4R-36" vertex="1" connectable="0">
          <mxGeometry x="-0.2271" y="-2" relative="1" as="geometry">
            <mxPoint x="-36" y="2" as="offset" />
          </mxGeometry>
        </mxCell>
        <mxCell id="dIx1owEwMWt9nK3Hzq4R-38" value="" style="endArrow=classicThin;html=1;curved=1;endFill=1;fillColor=#dae8fc;strokeColor=#6c8ebf;" parent="1" edge="1">
          <mxGeometry width="50" height="50" relative="1" as="geometry">
            <mxPoint x="80" y="720" as="sourcePoint" />
            <mxPoint x="400" y="710" as="targetPoint" />
            <Array as="points">
              <mxPoint x="240" y="620" />
            </Array>
          </mxGeometry>
        </mxCell>
        <mxCell id="dIx1owEwMWt9nK3Hzq4R-65" value="4" style="edgeLabel;html=1;align=center;verticalAlign=middle;resizable=0;points=[];fontColor=#6C8EBF;" parent="dIx1owEwMWt9nK3Hzq4R-38" vertex="1" connectable="0">
          <mxGeometry x="-0.3587" y="-27" relative="1" as="geometry">
            <mxPoint x="49" y="-14" as="offset" />
          </mxGeometry>
        </mxCell>
        <mxCell id="dIx1owEwMWt9nK3Hzq4R-43" value="" style="endArrow=classicThin;html=1;dashed=1;fontColor=#D79B00;rounded=1;endFill=0;fillColor=#f5f5f5;strokeColor=#B3B3B3;" parent="1" edge="1">
          <mxGeometry width="50" height="50" relative="1" as="geometry">
            <mxPoint x="308" y="404" as="sourcePoint" />
            <mxPoint x="88" y="287" as="targetPoint" />
            <Array as="points">
              <mxPoint x="230" y="378" />
              <mxPoint x="136" y="429" />
              <mxPoint x="245" y="209" />
            </Array>
          </mxGeometry>
        </mxCell>
        <mxCell id="dIx1owEwMWt9nK3Hzq4R-44" value="" style="endArrow=classicThin;html=1;rounded=1;dashed=1;strokeColor=#B3B3B3;fontColor=#D79B00;endFill=0;" parent="1" edge="1">
          <mxGeometry width="50" height="50" relative="1" as="geometry">
            <mxPoint x="601" y="330" as="sourcePoint" />
            <mxPoint x="607" y="285" as="targetPoint" />
            <Array as="points">
              <mxPoint x="842" y="411" />
              <mxPoint x="689" y="488" />
              <mxPoint x="769" y="208" />
            </Array>
          </mxGeometry>
        </mxCell>
        <mxCell id="dIx1owEwMWt9nK3Hzq4R-45" value="" style="endArrow=classicThin;html=1;curved=1;fillColor=#ffe6cc;strokeColor=#d79b00;startArrow=baseDash;startFill=0;endFill=1;" parent="1" edge="1">
          <mxGeometry width="50" height="50" relative="1" as="geometry">
            <mxPoint x="81" y="840" as="sourcePoint" />
            <mxPoint x="240" y="760" as="targetPoint" />
          </mxGeometry>
        </mxCell>
        <mxCell id="dIx1owEwMWt9nK3Hzq4R-46" value="b" style="edgeLabel;html=1;align=center;verticalAlign=middle;resizable=0;points=[];fontColor=#D79B00;" parent="dIx1owEwMWt9nK3Hzq4R-45" vertex="1" connectable="0">
          <mxGeometry x="0.152" relative="1" as="geometry">
            <mxPoint x="-14" y="6" as="offset" />
          </mxGeometry>
        </mxCell>
        <mxCell id="dIx1owEwMWt9nK3Hzq4R-47" value="" style="endArrow=none;html=1;curved=1;fillColor=#ffe6cc;strokeColor=#d79b00;startArrow=none;startFill=0;fontColor=#D79B00;endFill=0;" parent="1" edge="1">
          <mxGeometry width="50" height="50" relative="1" as="geometry">
            <mxPoint x="110" y="890" as="sourcePoint" />
            <mxPoint x="200" y="920" as="targetPoint" />
          </mxGeometry>
        </mxCell>
        <mxCell id="dIx1owEwMWt9nK3Hzq4R-48" value="a" style="edgeLabel;html=1;align=center;verticalAlign=middle;resizable=0;points=[];fontColor=#D79B00;" parent="dIx1owEwMWt9nK3Hzq4R-47" vertex="1" connectable="0">
          <mxGeometry x="0.1049" relative="1" as="geometry">
            <mxPoint x="-20" y="-7" as="offset" />
          </mxGeometry>
        </mxCell>
        <mxCell id="dIx1owEwMWt9nK3Hzq4R-49" value="" style="endArrow=classicThin;html=1;fontColor=#D79B00;curved=1;fillColor=#ffe6cc;strokeColor=#d79b00;dashed=1;endFill=1;" parent="1" edge="1">
          <mxGeometry width="50" height="50" relative="1" as="geometry">
            <mxPoint x="200" y="920" as="sourcePoint" />
            <mxPoint x="320" y="960" as="targetPoint" />
          </mxGeometry>
        </mxCell>
        <mxCell id="dIx1owEwMWt9nK3Hzq4R-50" value="" style="endArrow=none;html=1;fontColor=#D79B00;curved=1;fillColor=#ffe6cc;strokeColor=#d79b00;dashed=1;endFill=0;dashPattern=1 1;startArrow=none;startFill=0;" parent="1" edge="1">
          <mxGeometry width="50" height="50" relative="1" as="geometry">
            <mxPoint x="130" y="930" as="sourcePoint" />
            <mxPoint x="170" y="910" as="targetPoint" />
          </mxGeometry>
        </mxCell>
        <mxCell id="dIx1owEwMWt9nK3Hzq4R-51" value="" style="endArrow=classicThin;html=1;fontColor=#D79B00;curved=1;fillColor=#dae8fc;strokeColor=#6c8ebf;dashed=1;dashPattern=1 1;startArrow=baseDash;startFill=0;endFill=1;" parent="1" edge="1">
          <mxGeometry width="50" height="50" relative="1" as="geometry">
            <mxPoint x="130" y="930" as="sourcePoint" />
            <mxPoint x="240" y="760" as="targetPoint" />
          </mxGeometry>
        </mxCell>
        <mxCell id="dIx1owEwMWt9nK3Hzq4R-53" value="" style="endArrow=classicThin;html=1;dashed=1;fontColor=#D79B00;rounded=1;endFill=0;fillColor=#f5f5f5;strokeColor=#B3B3B3;" parent="1" edge="1">
          <mxGeometry width="50" height="50" relative="1" as="geometry">
            <mxPoint x="195" y="926" as="sourcePoint" />
            <mxPoint x="87" y="844" as="targetPoint" />
            <Array as="points">
              <mxPoint x="170" y="918" />
              <mxPoint x="136" y="935" />
              <mxPoint x="244" y="766" />
            </Array>
          </mxGeometry>
        </mxCell>
        <mxCell id="dIx1owEwMWt9nK3Hzq4R-54" value="" style="endArrow=none;html=1;curved=1;fillColor=#ffe6cc;strokeColor=#d79b00;startArrow=baseDash;startFill=0;fontColor=#D79B00;endFill=0;dashed=1;" parent="1" edge="1">
          <mxGeometry width="50" height="50" relative="1" as="geometry">
            <mxPoint x="80" y="880" as="sourcePoint" />
            <mxPoint x="110" y="890" as="targetPoint" />
          </mxGeometry>
        </mxCell>
        <mxCell id="dIx1owEwMWt9nK3Hzq4R-56" value="" style="endArrow=none;html=1;curved=1;fillColor=#ffe6cc;strokeColor=#d79b00;startArrow=none;startFill=0;fontColor=#D79B00;endFill=0;" parent="1" edge="1">
          <mxGeometry width="50" height="50" relative="1" as="geometry">
            <mxPoint x="110" y="1210" as="sourcePoint" />
            <mxPoint x="200" y="1240" as="targetPoint" />
          </mxGeometry>
        </mxCell>
        <mxCell id="dIx1owEwMWt9nK3Hzq4R-57" value="a" style="edgeLabel;html=1;align=center;verticalAlign=middle;resizable=0;points=[];fontColor=#D79B00;" parent="dIx1owEwMWt9nK3Hzq4R-56" vertex="1" connectable="0">
          <mxGeometry x="0.1049" relative="1" as="geometry">
            <mxPoint y="-1" as="offset" />
          </mxGeometry>
        </mxCell>
        <mxCell id="dIx1owEwMWt9nK3Hzq4R-58" value="" style="endArrow=classicThin;html=1;fontColor=#D79B00;curved=1;fillColor=#ffe6cc;strokeColor=#d79b00;dashed=1;endFill=1;" parent="1" edge="1">
          <mxGeometry width="50" height="50" relative="1" as="geometry">
            <mxPoint x="200" y="1240" as="sourcePoint" />
            <mxPoint x="320" y="1280" as="targetPoint" />
          </mxGeometry>
        </mxCell>
        <mxCell id="dIx1owEwMWt9nK3Hzq4R-59" value="" style="endArrow=none;html=1;curved=1;fillColor=#ffe6cc;strokeColor=#d79b00;startArrow=baseDash;startFill=0;fontColor=#D79B00;endFill=0;dashed=1;" parent="1" edge="1">
          <mxGeometry width="50" height="50" relative="1" as="geometry">
            <mxPoint x="80" y="1200" as="sourcePoint" />
            <mxPoint x="110" y="1210" as="targetPoint" />
          </mxGeometry>
        </mxCell>
        <mxCell id="dIx1owEwMWt9nK3Hzq4R-60" value="" style="endArrow=classicThin;html=1;curved=1;fillColor=#ffe6cc;strokeColor=#d79b00;startArrow=baseDash;startFill=0;endFill=1;" parent="1" edge="1">
          <mxGeometry width="50" height="50" relative="1" as="geometry">
            <mxPoint x="80" y="1160" as="sourcePoint" />
            <mxPoint x="240" y="1080" as="targetPoint" />
          </mxGeometry>
        </mxCell>
        <mxCell id="dIx1owEwMWt9nK3Hzq4R-61" value="b" style="edgeLabel;html=1;align=center;verticalAlign=middle;resizable=0;points=[];fontColor=#D79B00;" parent="dIx1owEwMWt9nK3Hzq4R-60" vertex="1" connectable="0">
          <mxGeometry x="0.152" relative="1" as="geometry">
            <mxPoint x="-14" y="6" as="offset" />
          </mxGeometry>
        </mxCell>
        <mxCell id="dIx1owEwMWt9nK3Hzq4R-63" value="" style="endArrow=classicThin;html=1;curved=1;fillColor=#ffe6cc;strokeColor=#d79b00;startArrow=baseDash;startFill=0;dashed=1;dashPattern=1 1;endFill=1;" parent="1" edge="1">
          <mxGeometry width="50" height="50" relative="1" as="geometry">
            <mxPoint x="160" y="1360" as="sourcePoint" />
            <mxPoint x="320" y="1280" as="targetPoint" />
          </mxGeometry>
        </mxCell>
        <mxCell id="dIx1owEwMWt9nK3Hzq4R-64" value="" style="endArrow=classicThin;html=1;fontColor=#D79B00;curved=1;fillColor=#dae8fc;strokeColor=#6c8ebf;dashed=1;dashPattern=1 1;startArrow=baseDash;startFill=0;endFill=1;" parent="1" edge="1">
          <mxGeometry width="50" height="50" relative="1" as="geometry">
            <mxPoint x="160" y="1360" as="sourcePoint" />
            <mxPoint x="240" y="1080" as="targetPoint" />
          </mxGeometry>
        </mxCell>
        <mxCell id="dIx1owEwMWt9nK3Hzq4R-29" value="" style="endArrow=classicThin;html=1;curved=1;fillColor=#ffe6cc;strokeColor=#d79b00;startArrow=baseDash;startFill=0;dashed=1;dashPattern=1 1;endFill=1;" parent="1" edge="1">
          <mxGeometry width="50" height="50" relative="1" as="geometry">
            <mxPoint x="680" y="480" as="sourcePoint" />
            <mxPoint x="840" y="400" as="targetPoint" />
          </mxGeometry>
        </mxCell>
        <mxCell id="dIx1owEwMWt9nK3Hzq4R-18" value="" style="endArrow=none;html=1;fontColor=#D79B00;curved=1;fillColor=#ffe6cc;strokeColor=#d79b00;dashed=1;endFill=0;dashPattern=1 1;startArrow=baseDash;startFill=0;" parent="1" edge="1">
          <mxGeometry width="50" height="50" relative="1" as="geometry">
            <mxPoint x="130" y="420" as="sourcePoint" />
            <mxPoint x="230" y="370" as="targetPoint" />
          </mxGeometry>
        </mxCell>
        <mxCell id="dIx1owEwMWt9nK3Hzq4R-19" value="" style="endArrow=classicThin;html=1;fontColor=#D79B00;curved=1;fillColor=#dae8fc;strokeColor=#6c8ebf;dashed=1;dashPattern=1 1;startArrow=baseDash;startFill=0;endFill=1;" parent="1" edge="1">
          <mxGeometry width="50" height="50" relative="1" as="geometry">
            <mxPoint x="130" y="420" as="sourcePoint" />
            <mxPoint x="240" y="200" as="targetPoint" />
          </mxGeometry>
        </mxCell>
        <mxCell id="dIx1owEwMWt9nK3Hzq4R-31" value="" style="endArrow=classicThin;html=1;curved=1;fillColor=#dae8fc;strokeColor=#6c8ebf;startArrow=baseDash;startFill=0;fontColor=#D79B00;dashed=1;dashPattern=1 1;endFill=1;" parent="1" edge="1">
          <mxGeometry width="50" height="50" relative="1" as="geometry">
            <mxPoint x="680" y="480" as="sourcePoint" />
            <mxPoint x="760" y="200" as="targetPoint" />
          </mxGeometry>
        </mxCell>
        <mxCell id="dIx1owEwMWt9nK3Hzq4R-62" value="" style="endArrow=classicThin;html=1;fontColor=#D79B00;curved=1;fillColor=#dae8fc;strokeColor=#6c8ebf;dashed=1;dashPattern=1 1;endFill=1;" parent="1" edge="1">
          <mxGeometry width="50" height="50" relative="1" as="geometry">
            <mxPoint x="110" y="1210" as="sourcePoint" />
            <mxPoint x="320" y="1280" as="targetPoint" />
            <Array as="points">
              <mxPoint x="204" y="1255" />
            </Array>
          </mxGeometry>
        </mxCell>
        <mxCell id="dIx1owEwMWt9nK3Hzq4R-66" value="" style="endArrow=classicThin;html=1;dashed=1;fontColor=#D79B00;rounded=1;endFill=0;fillColor=#f5f5f5;strokeColor=#B3B3B3;" parent="1" edge="1">
          <mxGeometry width="50" height="50" relative="1" as="geometry">
            <mxPoint x="200" y="1233" as="sourcePoint" />
            <mxPoint x="86" y="1165" as="targetPoint" />
            <Array as="points">
              <mxPoint x="110" y="1203" />
              <mxPoint x="112" y="1197" />
              <mxPoint x="345" y="1277" />
              <mxPoint x="165" y="1367" />
              <mxPoint x="245" y="1087" />
            </Array>
          </mxGeometry>
        </mxCell>
        <mxCell id="dIx1owEwMWt9nK3Hzq4R-67" value="" style="endArrow=none;html=1;curved=1;fillColor=#dae8fc;strokeColor=#6c8ebf;startArrow=baseDash;startFill=0;fontColor=#D79B00;endFill=0;dashed=1;" parent="1" edge="1">
          <mxGeometry width="50" height="50" relative="1" as="geometry">
            <mxPoint x="600" y="880" as="sourcePoint" />
            <mxPoint x="720" y="920" as="targetPoint" />
          </mxGeometry>
        </mxCell>
        <mxCell id="dIx1owEwMWt9nK3Hzq4R-69" value="" style="endArrow=classicThin;html=1;curved=1;fillColor=#ffe6cc;strokeColor=#d79b00;startArrow=baseDash;startFill=0;endFill=1;" parent="1" edge="1">
          <mxGeometry width="50" height="50" relative="1" as="geometry">
            <mxPoint x="600" y="840" as="sourcePoint" />
            <mxPoint x="760" y="760" as="targetPoint" />
          </mxGeometry>
        </mxCell>
        <mxCell id="dIx1owEwMWt9nK3Hzq4R-70" value="b" style="edgeLabel;html=1;align=center;verticalAlign=middle;resizable=0;points=[];fontColor=#D79B00;" parent="dIx1owEwMWt9nK3Hzq4R-69" vertex="1" connectable="0">
          <mxGeometry x="0.152" relative="1" as="geometry">
            <mxPoint x="-16" y="6" as="offset" />
          </mxGeometry>
        </mxCell>
        <mxCell id="dIx1owEwMWt9nK3Hzq4R-72" value="" style="endArrow=none;html=1;curved=1;fillColor=#ffe6cc;strokeColor=#d79b00;startArrow=baseDash;startFill=0;dashed=1;dashPattern=1 1;endFill=0;" parent="1" edge="1">
          <mxGeometry width="50" height="50" relative="1" as="geometry">
            <mxPoint x="660" y="1000" as="sourcePoint" />
            <mxPoint x="780" y="940" as="targetPoint" />
          </mxGeometry>
        </mxCell>
        <mxCell id="dIx1owEwMWt9nK3Hzq4R-73" value="" style="endArrow=classicThin;html=1;curved=1;fillColor=#dae8fc;strokeColor=#6c8ebf;startArrow=baseDash;startFill=0;fontColor=#D79B00;dashed=1;dashPattern=1 1;endFill=1;" parent="1" edge="1">
          <mxGeometry width="50" height="50" relative="1" as="geometry">
            <mxPoint x="660" y="1000" as="sourcePoint" />
            <mxPoint x="760" y="760" as="targetPoint" />
          </mxGeometry>
        </mxCell>
        <mxCell id="dIx1owEwMWt9nK3Hzq4R-74" value="" style="endArrow=none;html=1;curved=1;fillColor=#dae8fc;strokeColor=#6c8ebf;startArrow=none;startFill=0;fontColor=#D79B00;endFill=0;" parent="1" edge="1">
          <mxGeometry width="50" height="50" relative="1" as="geometry">
            <mxPoint x="720" y="920" as="sourcePoint" />
            <mxPoint x="780" y="940" as="targetPoint" />
          </mxGeometry>
        </mxCell>
        <mxCell id="dIx1owEwMWt9nK3Hzq4R-75" value="a" style="edgeLabel;html=1;align=center;verticalAlign=middle;resizable=0;points=[];fontColor=#6C8EBF;" parent="dIx1owEwMWt9nK3Hzq4R-74" vertex="1" connectable="0">
          <mxGeometry x="0.1049" relative="1" as="geometry">
            <mxPoint x="-5" y="-2" as="offset" />
          </mxGeometry>
        </mxCell>
        <mxCell id="dIx1owEwMWt9nK3Hzq4R-76" value="" style="endArrow=classicThin;html=1;curved=1;fillColor=#dae8fc;strokeColor=#6c8ebf;startArrow=none;startFill=0;fontColor=#D79B00;dashed=1;endFill=1;" parent="1" edge="1">
          <mxGeometry width="50" height="50" relative="1" as="geometry">
            <mxPoint x="780" y="940" as="sourcePoint" />
            <mxPoint x="840" y="960" as="targetPoint" />
          </mxGeometry>
        </mxCell>
        <mxCell id="dIx1owEwMWt9nK3Hzq4R-78" value="" style="endArrow=classicThin;html=1;curved=1;endFill=1;fillColor=#dae8fc;strokeColor=#6c8ebf;" parent="1" edge="1">
          <mxGeometry width="50" height="50" relative="1" as="geometry">
            <mxPoint x="760" y="710" as="sourcePoint" />
            <mxPoint x="880" y="710" as="targetPoint" />
            <Array as="points">
              <mxPoint x="820" y="670" />
            </Array>
          </mxGeometry>
        </mxCell>
        <mxCell id="dIx1owEwMWt9nK3Hzq4R-79" value="1" style="edgeLabel;html=1;align=center;verticalAlign=middle;resizable=0;points=[];fontColor=#6C8EBF;" parent="dIx1owEwMWt9nK3Hzq4R-78" vertex="1" connectable="0">
          <mxGeometry x="-0.5027" y="-12" relative="1" as="geometry">
            <mxPoint x="23" y="-10" as="offset" />
          </mxGeometry>
        </mxCell>
        <mxCell id="dIx1owEwMWt9nK3Hzq4R-80" value="" style="endArrow=classicThin;html=1;curved=1;endFill=1;fillColor=#ffe6cc;strokeColor=#d79b00;" parent="1" edge="1">
          <mxGeometry width="50" height="50" relative="1" as="geometry">
            <mxPoint x="880" y="710" as="sourcePoint" />
            <mxPoint x="600" y="710" as="targetPoint" />
          </mxGeometry>
        </mxCell>
        <mxCell id="dIx1owEwMWt9nK3Hzq4R-81" value="2" style="edgeLabel;html=1;align=center;verticalAlign=middle;resizable=0;points=[];fontColor=#D79B00;" parent="dIx1owEwMWt9nK3Hzq4R-80" vertex="1" connectable="0">
          <mxGeometry x="-0.1333" relative="1" as="geometry">
            <mxPoint x="-19" as="offset" />
          </mxGeometry>
        </mxCell>
        <mxCell id="dIx1owEwMWt9nK3Hzq4R-82" value="" style="endArrow=classicThin;html=1;curved=1;endFill=1;fillColor=#ffe6cc;strokeColor=#d79b00;" parent="1" edge="1">
          <mxGeometry width="50" height="50" relative="1" as="geometry">
            <mxPoint x="920" y="720" as="sourcePoint" />
            <mxPoint x="600" y="720" as="targetPoint" />
          </mxGeometry>
        </mxCell>
        <mxCell id="dIx1owEwMWt9nK3Hzq4R-83" value="4" style="edgeLabel;html=1;align=center;verticalAlign=middle;resizable=0;points=[];fontColor=#D79B00;" parent="dIx1owEwMWt9nK3Hzq4R-82" vertex="1" connectable="0">
          <mxGeometry x="-0.2271" y="-2" relative="1" as="geometry">
            <mxPoint x="-36" y="2" as="offset" />
          </mxGeometry>
        </mxCell>
        <mxCell id="dIx1owEwMWt9nK3Hzq4R-84" value="" style="endArrow=classicThin;html=1;curved=1;endFill=1;fillColor=#dae8fc;strokeColor=#6c8ebf;" parent="1" edge="1">
          <mxGeometry width="50" height="50" relative="1" as="geometry">
            <mxPoint x="600" y="710" as="sourcePoint" />
            <mxPoint x="920" y="720" as="targetPoint" />
            <Array as="points">
              <mxPoint x="760" y="610" />
            </Array>
          </mxGeometry>
        </mxCell>
        <mxCell id="dIx1owEwMWt9nK3Hzq4R-85" value="3" style="edgeLabel;html=1;align=center;verticalAlign=middle;resizable=0;points=[];fontColor=#6C8EBF;" parent="dIx1owEwMWt9nK3Hzq4R-84" vertex="1" connectable="0">
          <mxGeometry x="-0.3587" y="-27" relative="1" as="geometry">
            <mxPoint x="41" y="-6" as="offset" />
          </mxGeometry>
        </mxCell>
        <mxCell id="dIx1owEwMWt9nK3Hzq4R-86" value="" style="endArrow=classicThin;html=1;rounded=1;dashed=1;strokeColor=#B3B3B3;fontColor=#D79B00;endFill=0;" parent="1" edge="1">
          <mxGeometry width="50" height="50" relative="1" as="geometry">
            <mxPoint x="720" y="929" as="sourcePoint" />
            <mxPoint x="606" y="847" as="targetPoint" />
            <Array as="points">
              <mxPoint x="781" y="949" />
              <mxPoint x="667" y="1006" />
              <mxPoint x="766" y="767" />
            </Array>
          </mxGeometry>
        </mxCell>
        <mxCell id="dIx1owEwMWt9nK3Hzq4R-88" value="" style="endArrow=classicThin;html=1;curved=1;fillColor=#ffe6cc;strokeColor=#d79b00;startArrow=baseDash;startFill=0;endFill=1;" parent="1" edge="1">
          <mxGeometry width="50" height="50" relative="1" as="geometry">
            <mxPoint x="600" y="1160" as="sourcePoint" />
            <mxPoint x="760" y="1080" as="targetPoint" />
          </mxGeometry>
        </mxCell>
        <mxCell id="dIx1owEwMWt9nK3Hzq4R-89" value="b" style="edgeLabel;html=1;align=center;verticalAlign=middle;resizable=0;points=[];fontColor=#D79B00;" parent="dIx1owEwMWt9nK3Hzq4R-88" vertex="1" connectable="0">
          <mxGeometry x="0.152" relative="1" as="geometry">
            <mxPoint x="-16" y="6" as="offset" />
          </mxGeometry>
        </mxCell>
        <mxCell id="dIx1owEwMWt9nK3Hzq4R-91" value="" style="endArrow=classicThin;html=1;curved=1;fillColor=#dae8fc;strokeColor=#6c8ebf;startArrow=baseDash;startFill=0;fontColor=#D79B00;dashed=1;dashPattern=1 1;endFill=1;" parent="1" edge="1">
          <mxGeometry width="50" height="50" relative="1" as="geometry">
            <mxPoint x="650" y="1300" as="sourcePoint" />
            <mxPoint x="760" y="1080" as="targetPoint" />
          </mxGeometry>
        </mxCell>
        <mxCell id="dIx1owEwMWt9nK3Hzq4R-95" value="" style="endArrow=classicThin;html=1;rounded=1;dashed=1;strokeColor=#B3B3B3;fontColor=#D79B00;endFill=0;" parent="1" edge="1">
          <mxGeometry width="50" height="50" relative="1" as="geometry">
            <mxPoint x="730" y="1230" as="sourcePoint" />
            <mxPoint x="606" y="1167" as="targetPoint" />
            <Array as="points">
              <mxPoint x="790" y="1250" />
              <mxPoint x="780" y="1270" />
              <mxPoint x="750" y="1260" />
              <mxPoint x="655" y="1307" />
              <mxPoint x="766" y="1086" />
            </Array>
          </mxGeometry>
        </mxCell>
        <mxCell id="dIx1owEwMWt9nK3Hzq4R-90" value="" style="endArrow=none;html=1;curved=1;fillColor=#ffe6cc;strokeColor=#d79b00;startArrow=none;startFill=0;endFill=0;" parent="1" edge="1">
          <mxGeometry width="50" height="50" relative="1" as="geometry">
            <mxPoint x="750" y="1250" as="sourcePoint" />
            <mxPoint x="780" y="1260" as="targetPoint" />
          </mxGeometry>
        </mxCell>
        <mxCell id="dIx1owEwMWt9nK3Hzq4R-97" value="" style="endArrow=none;html=1;curved=1;fillColor=#ffe6cc;strokeColor=#d79b00;startArrow=baseDash;startFill=0;endFill=0;dashed=1;dashPattern=1 1;" parent="1" edge="1">
          <mxGeometry width="50" height="50" relative="1" as="geometry">
            <mxPoint x="650" y="1300" as="sourcePoint" />
            <mxPoint x="750" y="1250" as="targetPoint" />
          </mxGeometry>
        </mxCell>
        <mxCell id="dIx1owEwMWt9nK3Hzq4R-98" value="b" style="edgeLabel;html=1;align=center;verticalAlign=middle;resizable=0;points=[];fontColor=#D79B00;" parent="dIx1owEwMWt9nK3Hzq4R-97" vertex="1" connectable="0">
          <mxGeometry x="0.152" relative="1" as="geometry">
            <mxPoint x="-16" y="6" as="offset" />
          </mxGeometry>
        </mxCell>
        <mxCell id="dIx1owEwMWt9nK3Hzq4R-99" value="" style="endArrow=none;html=1;curved=1;fillColor=#ffe6cc;strokeColor=#d79b00;startArrow=baseDash;startFill=0;dashed=1;endFill=0;" parent="1" edge="1">
          <mxGeometry width="50" height="50" relative="1" as="geometry">
            <mxPoint x="600" y="1200" as="sourcePoint" />
            <mxPoint x="750" y="1250" as="targetPoint" />
          </mxGeometry>
        </mxCell>
        <mxCell id="dIx1owEwMWt9nK3Hzq4R-101" value="1" style="endArrow=classicThin;html=1;curved=1;endFill=1;fillColor=#dae8fc;strokeColor=#6c8ebf;fontColor=#6C8EBF;" parent="1" edge="1">
          <mxGeometry x="-0.0616" y="-28" width="50" height="50" relative="1" as="geometry">
            <mxPoint x="600" y="160" as="sourcePoint" />
            <mxPoint x="920" y="160" as="targetPoint" />
            <Array as="points">
              <mxPoint x="760" y="100" />
            </Array>
            <mxPoint as="offset" />
          </mxGeometry>
        </mxCell>
        <mxCell id="dIx1owEwMWt9nK3Hzq4R-102" value="2" style="endArrow=classicThin;html=1;curved=1;endFill=1;fillColor=#ffe6cc;strokeColor=#d79b00;fontColor=#D79B00;" parent="1" edge="1">
          <mxGeometry width="50" height="50" relative="1" as="geometry">
            <mxPoint x="920" y="160" as="sourcePoint" />
            <mxPoint x="600" y="160" as="targetPoint" />
          </mxGeometry>
        </mxCell>
        <mxCell id="dIx1owEwMWt9nK3Hzq4R-105" value="" style="endArrow=classicThin;html=1;curved=1;fillColor=#ffe6cc;strokeColor=#d79b00;startArrow=none;startFill=0;dashed=1;endFill=1;" parent="1" edge="1">
          <mxGeometry width="50" height="50" relative="1" as="geometry">
            <mxPoint x="170" y="910" as="sourcePoint" />
            <mxPoint x="269" y="860" as="targetPoint" />
          </mxGeometry>
        </mxCell>
        <mxCell id="dIx1owEwMWt9nK3Hzq4R-107" value="" style="endArrow=classicThin;html=1;curved=1;fillColor=#ffe6cc;strokeColor=#d79b00;startArrow=none;startFill=0;dashed=1;endFill=1;" parent="1" edge="1">
          <mxGeometry width="50" height="50" relative="1" as="geometry">
            <mxPoint x="750" y="1250" as="sourcePoint" />
            <mxPoint x="810" y="1220" as="targetPoint" />
          </mxGeometry>
        </mxCell>
        <mxCell id="dIx1owEwMWt9nK3Hzq4R-108" value="" style="endArrow=none;html=1;curved=1;fillColor=#ffe6cc;strokeColor=#d79b00;startArrow=baseDash;startFill=0;fontColor=#D79B00;endFill=0;dashed=1;" parent="1" edge="1">
          <mxGeometry width="50" height="50" relative="1" as="geometry">
            <mxPoint x="110" y="940" as="sourcePoint" />
            <mxPoint x="130" y="930" as="targetPoint" />
          </mxGeometry>
        </mxCell>
        <mxCell id="dIx1owEwMWt9nK3Hzq4R-113" value="" style="endArrow=none;html=1;curved=1;fillColor=#dae8fc;strokeColor=#6c8ebf;startArrow=baseDash;startFill=0;fontColor=#D79B00;endFill=0;dashed=1;" parent="1" edge="1">
          <mxGeometry width="50" height="50" relative="1" as="geometry">
            <mxPoint x="602" y="1195" as="sourcePoint" />
            <mxPoint x="723" y="1236" as="targetPoint" />
          </mxGeometry>
        </mxCell>
        <mxCell id="dIx1owEwMWt9nK3Hzq4R-114" value="" style="endArrow=none;html=1;curved=1;fillColor=#dae8fc;strokeColor=#6c8ebf;startArrow=none;startFill=0;fontColor=#D79B00;endFill=0;" parent="1" edge="1">
          <mxGeometry width="50" height="50" relative="1" as="geometry">
            <mxPoint x="723" y="1236" as="sourcePoint" />
            <mxPoint x="783" y="1256" as="targetPoint" />
          </mxGeometry>
        </mxCell>
        <mxCell id="dIx1owEwMWt9nK3Hzq4R-115" value="a" style="edgeLabel;html=1;align=center;verticalAlign=middle;resizable=0;points=[];fontColor=#6C8EBF;" parent="dIx1owEwMWt9nK3Hzq4R-114" vertex="1" connectable="0">
          <mxGeometry x="0.1049" relative="1" as="geometry">
            <mxPoint x="-7" y="-6" as="offset" />
          </mxGeometry>
        </mxCell>
        <mxCell id="dIx1owEwMWt9nK3Hzq4R-116" value="" style="endArrow=classicThin;html=1;curved=1;fillColor=#dae8fc;strokeColor=#6c8ebf;startArrow=none;startFill=0;fontColor=#D79B00;dashed=1;endFill=1;" parent="1" edge="1">
          <mxGeometry width="50" height="50" relative="1" as="geometry">
            <mxPoint x="786" y="1257" as="sourcePoint" />
            <mxPoint x="841" y="1276" as="targetPoint" />
          </mxGeometry>
        </mxCell>
        <mxCell id="dIx1owEwMWt9nK3Hzq4R-117" value="" style="endArrow=classicThin;html=1;curved=1;fillColor=#ffe6cc;strokeColor=#d79b00;startArrow=none;startFill=0;dashed=1;endFill=1;" parent="1" edge="1">
          <mxGeometry width="50" height="50" relative="1" as="geometry">
            <mxPoint x="780" y="940" as="sourcePoint" />
            <mxPoint x="820" y="920" as="targetPoint" />
          </mxGeometry>
        </mxCell>
        <mxCell id="dIx1owEwMWt9nK3Hzq4R-118" value="" style="endArrow=classicThin;html=1;curved=1;fillColor=#ffe6cc;strokeColor=#d79b00;startArrow=none;startFill=0;dashed=1;endFill=1;" parent="1" edge="1">
          <mxGeometry width="50" height="50" relative="1" as="geometry">
            <mxPoint x="780" y="1260" as="sourcePoint" />
            <mxPoint x="840" y="1280" as="targetPoint" />
          </mxGeometry>
        </mxCell>
        <mxCell id="m6Hq1n8jbl_uhr_pyz6t-1" value="" style="endArrow=none;html=1;rounded=0;" parent="1" edge="1">
          <mxGeometry width="50" height="50" relative="1" as="geometry">
            <mxPoint x="1320" y="160" as="sourcePoint" />
            <mxPoint x="1440" y="160" as="targetPoint" />
          </mxGeometry>
        </mxCell>
        <mxCell id="m6Hq1n8jbl_uhr_pyz6t-2" value="" style="curved=1;endArrow=none;html=1;rounded=0;endFill=0;" parent="1" edge="1">
          <mxGeometry width="50" height="50" relative="1" as="geometry">
            <mxPoint x="1440" y="160" as="sourcePoint" />
            <mxPoint x="1560" y="160" as="targetPoint" />
            <Array as="points">
              <mxPoint x="1500" y="120" />
            </Array>
          </mxGeometry>
        </mxCell>
        <mxCell id="m6Hq1n8jbl_uhr_pyz6t-3" value="" style="endArrow=none;dashed=1;html=1;rounded=0;fillColor=#f5f5f5;strokeColor=#C2C2C2;" parent="1" edge="1">
          <mxGeometry width="50" height="50" relative="1" as="geometry">
            <mxPoint x="1320" y="380" as="sourcePoint" />
            <mxPoint x="1320" y="120" as="targetPoint" />
          </mxGeometry>
        </mxCell>
        <mxCell id="m6Hq1n8jbl_uhr_pyz6t-4" value="" style="curved=1;endArrow=none;html=1;rounded=0;endFill=0;" parent="1" edge="1">
          <mxGeometry width="50" height="50" relative="1" as="geometry">
            <mxPoint x="1260" y="160" as="sourcePoint" />
            <mxPoint x="1320" y="160" as="targetPoint" />
            <Array as="points">
              <mxPoint x="1290" y="120" />
            </Array>
          </mxGeometry>
        </mxCell>
        <mxCell id="m6Hq1n8jbl_uhr_pyz6t-11" value="" style="endArrow=none;html=1;rounded=0;" parent="1" edge="1">
          <mxGeometry width="50" height="50" relative="1" as="geometry">
            <mxPoint x="1560" y="160" as="sourcePoint" />
            <mxPoint x="1680" y="160" as="targetPoint" />
          </mxGeometry>
        </mxCell>
        <mxCell id="m6Hq1n8jbl_uhr_pyz6t-12" value="" style="curved=1;endArrow=none;html=1;rounded=0;endFill=0;" parent="1" edge="1">
          <mxGeometry width="50" height="50" relative="1" as="geometry">
            <mxPoint x="1680" y="160" as="sourcePoint" />
            <mxPoint x="1800" y="160" as="targetPoint" />
            <Array as="points">
              <mxPoint x="1740" y="120" />
            </Array>
          </mxGeometry>
        </mxCell>
        <mxCell id="m6Hq1n8jbl_uhr_pyz6t-13" value="" style="curved=1;endArrow=none;html=1;rounded=0;endFill=0;" parent="1" edge="1">
          <mxGeometry width="50" height="50" relative="1" as="geometry">
            <mxPoint x="1480" y="200" as="sourcePoint" />
            <mxPoint x="1600" y="200" as="targetPoint" />
            <Array as="points">
              <mxPoint x="1540" y="160" />
            </Array>
          </mxGeometry>
        </mxCell>
        <mxCell id="m6Hq1n8jbl_uhr_pyz6t-14" value="" style="endArrow=none;html=1;rounded=0;" parent="1" edge="1">
          <mxGeometry width="50" height="50" relative="1" as="geometry">
            <mxPoint x="1600" y="200" as="sourcePoint" />
            <mxPoint x="1720" y="200" as="targetPoint" />
          </mxGeometry>
        </mxCell>
        <mxCell id="m6Hq1n8jbl_uhr_pyz6t-15" value="" style="curved=1;endArrow=none;html=1;rounded=0;endFill=0;" parent="1" edge="1">
          <mxGeometry width="50" height="50" relative="1" as="geometry">
            <mxPoint x="1520" y="240" as="sourcePoint" />
            <mxPoint x="1640" y="240" as="targetPoint" />
            <Array as="points">
              <mxPoint x="1580" y="200" />
            </Array>
          </mxGeometry>
        </mxCell>
        <mxCell id="m6Hq1n8jbl_uhr_pyz6t-16" value="" style="endArrow=none;html=1;rounded=0;" parent="1" edge="1">
          <mxGeometry width="50" height="50" relative="1" as="geometry">
            <mxPoint x="1640" y="240" as="sourcePoint" />
            <mxPoint x="1760" y="240" as="targetPoint" />
          </mxGeometry>
        </mxCell>
        <mxCell id="m6Hq1n8jbl_uhr_pyz6t-17" value="" style="curved=1;endArrow=none;html=1;rounded=0;endFill=0;" parent="1" edge="1">
          <mxGeometry width="50" height="50" relative="1" as="geometry">
            <mxPoint x="1560" y="280" as="sourcePoint" />
            <mxPoint x="1680" y="280" as="targetPoint" />
            <Array as="points">
              <mxPoint x="1620" y="240" />
            </Array>
          </mxGeometry>
        </mxCell>
        <mxCell id="m6Hq1n8jbl_uhr_pyz6t-18" value="" style="endArrow=none;html=1;rounded=0;" parent="1" edge="1">
          <mxGeometry width="50" height="50" relative="1" as="geometry">
            <mxPoint x="1680" y="280" as="sourcePoint" />
            <mxPoint x="1800" y="280" as="targetPoint" />
          </mxGeometry>
        </mxCell>
        <mxCell id="m6Hq1n8jbl_uhr_pyz6t-19" value="" style="curved=1;endArrow=none;html=1;rounded=0;endFill=0;" parent="1" edge="1">
          <mxGeometry width="50" height="50" relative="1" as="geometry">
            <mxPoint x="1600" y="320" as="sourcePoint" />
            <mxPoint x="1720" y="320" as="targetPoint" />
            <Array as="points">
              <mxPoint x="1660" y="280" />
            </Array>
          </mxGeometry>
        </mxCell>
        <mxCell id="m6Hq1n8jbl_uhr_pyz6t-20" value="" style="endArrow=none;html=1;rounded=0;" parent="1" edge="1">
          <mxGeometry width="50" height="50" relative="1" as="geometry">
            <mxPoint x="1720" y="320" as="sourcePoint" />
            <mxPoint x="1800" y="320" as="targetPoint" />
          </mxGeometry>
        </mxCell>
        <mxCell id="m6Hq1n8jbl_uhr_pyz6t-22" value="" style="endArrow=none;html=1;rounded=0;" parent="1" edge="1">
          <mxGeometry width="50" height="50" relative="1" as="geometry">
            <mxPoint x="1760" y="360" as="sourcePoint" />
            <mxPoint x="1800" y="360" as="targetPoint" />
          </mxGeometry>
        </mxCell>
        <mxCell id="m6Hq1n8jbl_uhr_pyz6t-23" value="" style="curved=1;endArrow=none;html=1;rounded=0;endFill=0;" parent="1" edge="1">
          <mxGeometry width="50" height="50" relative="1" as="geometry">
            <mxPoint x="1640" y="360" as="sourcePoint" />
            <mxPoint x="1760" y="360" as="targetPoint" />
            <Array as="points">
              <mxPoint x="1700" y="320" />
            </Array>
          </mxGeometry>
        </mxCell>
        <mxCell id="m6Hq1n8jbl_uhr_pyz6t-24" value="" style="curved=1;endArrow=none;html=1;rounded=0;endFill=0;" parent="1" edge="1">
          <mxGeometry width="50" height="50" relative="1" as="geometry">
            <mxPoint x="1720" y="200" as="sourcePoint" />
            <mxPoint x="1800" y="180" as="targetPoint" />
            <Array as="points">
              <mxPoint x="1760" y="170" />
            </Array>
          </mxGeometry>
        </mxCell>
        <mxCell id="m6Hq1n8jbl_uhr_pyz6t-25" value="" style="curved=1;endArrow=none;html=1;rounded=0;endFill=0;" parent="1" edge="1">
          <mxGeometry width="50" height="50" relative="1" as="geometry">
            <mxPoint x="1760" y="240" as="sourcePoint" />
            <mxPoint x="1800" y="220" as="targetPoint" />
            <Array as="points">
              <mxPoint x="1780" y="220" />
            </Array>
          </mxGeometry>
        </mxCell>
        <mxCell id="m6Hq1n8jbl_uhr_pyz6t-26" value="" style="endArrow=none;dashed=1;html=1;rounded=0;fillColor=#f5f5f5;strokeColor=#C2C2C2;" parent="1" edge="1">
          <mxGeometry width="50" height="50" relative="1" as="geometry">
            <mxPoint x="1260" y="380" as="sourcePoint" />
            <mxPoint x="1260" y="120" as="targetPoint" />
          </mxGeometry>
        </mxCell>
        <mxCell id="m6Hq1n8jbl_uhr_pyz6t-27" value="" style="endArrow=none;dashed=1;html=1;rounded=0;fillColor=#f5f5f5;strokeColor=#C2C2C2;" parent="1" edge="1">
          <mxGeometry width="50" height="50" relative="1" as="geometry">
            <mxPoint x="1440" y="380" as="sourcePoint" />
            <mxPoint x="1440" y="120" as="targetPoint" />
          </mxGeometry>
        </mxCell>
        <mxCell id="m6Hq1n8jbl_uhr_pyz6t-28" value="" style="endArrow=none;dashed=1;html=1;rounded=0;fillColor=#f5f5f5;strokeColor=#C2C2C2;" parent="1" edge="1">
          <mxGeometry width="50" height="50" relative="1" as="geometry">
            <mxPoint x="1560" y="380" as="sourcePoint" />
            <mxPoint x="1560" y="120" as="targetPoint" />
          </mxGeometry>
        </mxCell>
        <mxCell id="m6Hq1n8jbl_uhr_pyz6t-29" value="" style="endArrow=none;dashed=1;html=1;rounded=0;fillColor=#f5f5f5;strokeColor=#C2C2C2;" parent="1" edge="1">
          <mxGeometry width="50" height="50" relative="1" as="geometry">
            <mxPoint x="1680" y="380" as="sourcePoint" />
            <mxPoint x="1680" y="120" as="targetPoint" />
          </mxGeometry>
        </mxCell>
        <mxCell id="m6Hq1n8jbl_uhr_pyz6t-30" value="" style="endArrow=none;dashed=1;html=1;rounded=0;fillColor=#f5f5f5;strokeColor=#C2C2C2;" parent="1" edge="1">
          <mxGeometry width="50" height="50" relative="1" as="geometry">
            <mxPoint x="1800" y="380" as="sourcePoint" />
            <mxPoint x="1800" y="120" as="targetPoint" />
          </mxGeometry>
        </mxCell>
        <mxCell id="m6Hq1n8jbl_uhr_pyz6t-31" value="" style="endArrow=none;html=1;rounded=0;" parent="1" edge="1">
          <mxGeometry width="50" height="50" relative="1" as="geometry">
            <mxPoint x="1360" y="200" as="sourcePoint" />
            <mxPoint x="1480" y="200" as="targetPoint" />
          </mxGeometry>
        </mxCell>
        <mxCell id="m6Hq1n8jbl_uhr_pyz6t-32" value="" style="endArrow=none;html=1;rounded=0;" parent="1" edge="1">
          <mxGeometry width="50" height="50" relative="1" as="geometry">
            <mxPoint x="1400" y="240" as="sourcePoint" />
            <mxPoint x="1520" y="240" as="targetPoint" />
          </mxGeometry>
        </mxCell>
        <mxCell id="m6Hq1n8jbl_uhr_pyz6t-33" value="" style="endArrow=none;html=1;rounded=0;" parent="1" edge="1">
          <mxGeometry width="50" height="50" relative="1" as="geometry">
            <mxPoint x="1440" y="280" as="sourcePoint" />
            <mxPoint x="1560" y="280" as="targetPoint" />
          </mxGeometry>
        </mxCell>
        <mxCell id="m6Hq1n8jbl_uhr_pyz6t-34" value="" style="endArrow=none;html=1;rounded=0;" parent="1" edge="1">
          <mxGeometry width="50" height="50" relative="1" as="geometry">
            <mxPoint x="1480" y="320" as="sourcePoint" />
            <mxPoint x="1600" y="320" as="targetPoint" />
          </mxGeometry>
        </mxCell>
        <mxCell id="m6Hq1n8jbl_uhr_pyz6t-35" value="" style="endArrow=none;html=1;rounded=0;" parent="1" edge="1">
          <mxGeometry width="50" height="50" relative="1" as="geometry">
            <mxPoint x="1520" y="360" as="sourcePoint" />
            <mxPoint x="1640" y="360" as="targetPoint" />
          </mxGeometry>
        </mxCell>
        <mxCell id="m6Hq1n8jbl_uhr_pyz6t-36" value="" style="curved=1;endArrow=none;html=1;rounded=0;endFill=0;" parent="1" edge="1">
          <mxGeometry width="50" height="50" relative="1" as="geometry">
            <mxPoint x="1400" y="360" as="sourcePoint" />
            <mxPoint x="1520" y="360" as="targetPoint" />
            <Array as="points">
              <mxPoint x="1460" y="320" />
            </Array>
          </mxGeometry>
        </mxCell>
        <mxCell id="m6Hq1n8jbl_uhr_pyz6t-37" value="" style="curved=1;endArrow=none;html=1;rounded=0;endFill=0;" parent="1" edge="1">
          <mxGeometry width="50" height="50" relative="1" as="geometry">
            <mxPoint x="1360" y="320" as="sourcePoint" />
            <mxPoint x="1480" y="320" as="targetPoint" />
            <Array as="points">
              <mxPoint x="1420" y="280" />
            </Array>
          </mxGeometry>
        </mxCell>
        <mxCell id="m6Hq1n8jbl_uhr_pyz6t-38" value="" style="curved=1;endArrow=none;html=1;rounded=0;endFill=0;" parent="1" edge="1">
          <mxGeometry width="50" height="50" relative="1" as="geometry">
            <mxPoint x="1320" y="280" as="sourcePoint" />
            <mxPoint x="1440" y="280" as="targetPoint" />
            <Array as="points">
              <mxPoint x="1380" y="240" />
            </Array>
          </mxGeometry>
        </mxCell>
        <mxCell id="m6Hq1n8jbl_uhr_pyz6t-39" value="" style="curved=1;endArrow=none;html=1;rounded=0;endFill=0;" parent="1" edge="1">
          <mxGeometry width="50" height="50" relative="1" as="geometry">
            <mxPoint x="1300" y="240" as="sourcePoint" />
            <mxPoint x="1400" y="240" as="targetPoint" />
            <Array as="points">
              <mxPoint x="1350" y="200" />
            </Array>
          </mxGeometry>
        </mxCell>
        <mxCell id="m6Hq1n8jbl_uhr_pyz6t-40" value="" style="curved=1;endArrow=none;html=1;rounded=0;endFill=0;" parent="1" edge="1">
          <mxGeometry width="50" height="50" relative="1" as="geometry">
            <mxPoint x="1280" y="200" as="sourcePoint" />
            <mxPoint x="1360" y="200" as="targetPoint" />
            <Array as="points">
              <mxPoint x="1320" y="160" />
            </Array>
          </mxGeometry>
        </mxCell>
        <mxCell id="m6Hq1n8jbl_uhr_pyz6t-41" value="" style="endArrow=none;html=1;rounded=0;" parent="1" edge="1">
          <mxGeometry width="50" height="50" relative="1" as="geometry">
            <mxPoint x="1260" y="280" as="sourcePoint" />
            <mxPoint x="1320" y="280" as="targetPoint" />
          </mxGeometry>
        </mxCell>
        <mxCell id="m6Hq1n8jbl_uhr_pyz6t-43" value="" style="curved=1;endArrow=none;html=1;rounded=0;endFill=0;" parent="1" edge="1">
          <mxGeometry width="50" height="50" relative="1" as="geometry">
            <mxPoint x="1260" y="320" as="sourcePoint" />
            <mxPoint x="1280" y="320" as="targetPoint" />
            <Array as="points">
              <mxPoint x="1270" y="280" />
            </Array>
          </mxGeometry>
        </mxCell>
        <mxCell id="m6Hq1n8jbl_uhr_pyz6t-44" value="" style="endArrow=none;html=1;rounded=0;" parent="1" edge="1">
          <mxGeometry width="50" height="50" relative="1" as="geometry">
            <mxPoint x="1280" y="320" as="sourcePoint" />
            <mxPoint x="1360" y="320" as="targetPoint" />
          </mxGeometry>
        </mxCell>
        <mxCell id="m6Hq1n8jbl_uhr_pyz6t-45" value="" style="curved=1;endArrow=none;html=1;rounded=0;endFill=0;" parent="1" edge="1">
          <mxGeometry width="50" height="50" relative="1" as="geometry">
            <mxPoint x="1260" y="360" as="sourcePoint" />
            <mxPoint x="1300" y="360" as="targetPoint" />
            <Array as="points">
              <mxPoint x="1280" y="320" />
            </Array>
          </mxGeometry>
        </mxCell>
        <mxCell id="m6Hq1n8jbl_uhr_pyz6t-46" value="" style="endArrow=none;html=1;rounded=0;" parent="1" edge="1">
          <mxGeometry width="50" height="50" relative="1" as="geometry">
            <mxPoint x="1300" y="360" as="sourcePoint" />
            <mxPoint x="1400" y="360" as="targetPoint" />
          </mxGeometry>
        </mxCell>
        <mxCell id="m6Hq1n8jbl_uhr_pyz6t-47" value="" style="endArrow=none;html=1;rounded=0;" parent="1" edge="1">
          <mxGeometry width="50" height="50" relative="1" as="geometry">
            <mxPoint x="1260" y="240" as="sourcePoint" />
            <mxPoint x="1300" y="240" as="targetPoint" />
          </mxGeometry>
        </mxCell>
        <mxCell id="m6Hq1n8jbl_uhr_pyz6t-48" value="" style="endArrow=none;html=1;rounded=0;" parent="1" edge="1">
          <mxGeometry width="50" height="50" relative="1" as="geometry">
            <mxPoint x="1260" y="200" as="sourcePoint" />
            <mxPoint x="1280" y="200" as="targetPoint" />
          </mxGeometry>
        </mxCell>
        <mxCell id="m6Hq1n8jbl_uhr_pyz6t-49" value="" style="endArrow=none;html=1;rounded=0;" parent="1" edge="1">
          <mxGeometry width="50" height="50" relative="1" as="geometry">
            <mxPoint x="1240" y="760" as="sourcePoint" />
            <mxPoint x="1440" y="760" as="targetPoint" />
          </mxGeometry>
        </mxCell>
        <mxCell id="m6Hq1n8jbl_uhr_pyz6t-50" value="" style="curved=1;endArrow=none;html=1;rounded=0;endFill=0;" parent="1" edge="1">
          <mxGeometry width="50" height="50" relative="1" as="geometry">
            <mxPoint x="1440" y="760" as="sourcePoint" />
            <mxPoint x="1480" y="760" as="targetPoint" />
            <Array as="points">
              <mxPoint x="1460" y="720" />
            </Array>
          </mxGeometry>
        </mxCell>
        <mxCell id="m6Hq1n8jbl_uhr_pyz6t-52" value="" style="curved=1;endArrow=none;html=1;rounded=0;endFill=0;" parent="1" edge="1">
          <mxGeometry width="50" height="50" relative="1" as="geometry">
            <mxPoint x="1220" y="760" as="sourcePoint" />
            <mxPoint x="1240" y="760" as="targetPoint" />
            <Array as="points">
              <mxPoint x="1230" y="720" />
            </Array>
          </mxGeometry>
        </mxCell>
        <mxCell id="m6Hq1n8jbl_uhr_pyz6t-53" value="" style="endArrow=none;html=1;rounded=0;" parent="1" edge="1">
          <mxGeometry width="50" height="50" relative="1" as="geometry">
            <mxPoint x="1480" y="760" as="sourcePoint" />
            <mxPoint x="1680" y="760" as="targetPoint" />
          </mxGeometry>
        </mxCell>
        <mxCell id="m6Hq1n8jbl_uhr_pyz6t-56" value="" style="endArrow=none;html=1;rounded=0;" parent="1" edge="1">
          <mxGeometry width="50" height="50" relative="1" as="geometry">
            <mxPoint x="1520" y="800" as="sourcePoint" />
            <mxPoint x="1720" y="800" as="targetPoint" />
          </mxGeometry>
        </mxCell>
        <mxCell id="m6Hq1n8jbl_uhr_pyz6t-58" value="" style="endArrow=none;html=1;rounded=0;" parent="1" edge="1">
          <mxGeometry width="50" height="50" relative="1" as="geometry">
            <mxPoint x="1560" y="840" as="sourcePoint" />
            <mxPoint x="1760" y="840" as="targetPoint" />
          </mxGeometry>
        </mxCell>
        <mxCell id="m6Hq1n8jbl_uhr_pyz6t-60" value="" style="endArrow=none;html=1;rounded=0;" parent="1" edge="1">
          <mxGeometry width="50" height="50" relative="1" as="geometry">
            <mxPoint x="1600" y="880" as="sourcePoint" />
            <mxPoint x="1800" y="880" as="targetPoint" />
          </mxGeometry>
        </mxCell>
        <mxCell id="m6Hq1n8jbl_uhr_pyz6t-62" value="" style="endArrow=none;html=1;rounded=0;" parent="1" edge="1">
          <mxGeometry width="50" height="50" relative="1" as="geometry">
            <mxPoint x="1640" y="920" as="sourcePoint" />
            <mxPoint x="1800" y="920" as="targetPoint" />
          </mxGeometry>
        </mxCell>
        <mxCell id="m6Hq1n8jbl_uhr_pyz6t-63" value="" style="endArrow=none;html=1;rounded=0;" parent="1" edge="1">
          <mxGeometry width="50" height="50" relative="1" as="geometry">
            <mxPoint x="1680" y="960" as="sourcePoint" />
            <mxPoint x="1800" y="960" as="targetPoint" />
          </mxGeometry>
        </mxCell>
        <mxCell id="m6Hq1n8jbl_uhr_pyz6t-67" value="" style="endArrow=none;dashed=1;html=1;rounded=0;fillColor=#f5f5f5;strokeColor=#C2C2C2;" parent="1" edge="1">
          <mxGeometry width="50" height="50" relative="1" as="geometry">
            <mxPoint x="1220" y="980" as="sourcePoint" />
            <mxPoint x="1220" y="720" as="targetPoint" />
          </mxGeometry>
        </mxCell>
        <mxCell id="m6Hq1n8jbl_uhr_pyz6t-68" value="" style="endArrow=none;dashed=1;html=1;rounded=0;fillColor=#f5f5f5;strokeColor=#C2C2C2;" parent="1" edge="1">
          <mxGeometry width="50" height="50" relative="1" as="geometry">
            <mxPoint x="1440" y="980" as="sourcePoint" />
            <mxPoint x="1440" y="720" as="targetPoint" />
          </mxGeometry>
        </mxCell>
        <mxCell id="m6Hq1n8jbl_uhr_pyz6t-69" value="" style="endArrow=none;dashed=1;html=1;rounded=0;fillColor=#f5f5f5;strokeColor=#C2C2C2;" parent="1" edge="1">
          <mxGeometry width="50" height="50" relative="1" as="geometry">
            <mxPoint x="1560" y="980" as="sourcePoint" />
            <mxPoint x="1560" y="720" as="targetPoint" />
          </mxGeometry>
        </mxCell>
        <mxCell id="m6Hq1n8jbl_uhr_pyz6t-70" value="" style="endArrow=none;dashed=1;html=1;rounded=0;fillColor=#f5f5f5;strokeColor=#C2C2C2;" parent="1" edge="1">
          <mxGeometry width="50" height="50" relative="1" as="geometry">
            <mxPoint x="1680" y="980" as="sourcePoint" />
            <mxPoint x="1680" y="720" as="targetPoint" />
          </mxGeometry>
        </mxCell>
        <mxCell id="m6Hq1n8jbl_uhr_pyz6t-71" value="" style="endArrow=none;dashed=1;html=1;rounded=0;fillColor=#f5f5f5;strokeColor=#C2C2C2;" parent="1" edge="1">
          <mxGeometry width="50" height="50" relative="1" as="geometry">
            <mxPoint x="1800" y="980" as="sourcePoint" />
            <mxPoint x="1800" y="720" as="targetPoint" />
          </mxGeometry>
        </mxCell>
        <mxCell id="m6Hq1n8jbl_uhr_pyz6t-72" value="" style="endArrow=none;html=1;rounded=0;" parent="1" edge="1">
          <mxGeometry width="50" height="50" relative="1" as="geometry">
            <mxPoint x="1280" y="800" as="sourcePoint" />
            <mxPoint x="1480" y="800" as="targetPoint" />
          </mxGeometry>
        </mxCell>
        <mxCell id="m6Hq1n8jbl_uhr_pyz6t-73" value="" style="endArrow=none;html=1;rounded=0;" parent="1" edge="1">
          <mxGeometry width="50" height="50" relative="1" as="geometry">
            <mxPoint x="1320" y="840" as="sourcePoint" />
            <mxPoint x="1520" y="840" as="targetPoint" />
          </mxGeometry>
        </mxCell>
        <mxCell id="m6Hq1n8jbl_uhr_pyz6t-74" value="" style="endArrow=none;html=1;rounded=0;" parent="1" edge="1">
          <mxGeometry width="50" height="50" relative="1" as="geometry">
            <mxPoint x="1360" y="880" as="sourcePoint" />
            <mxPoint x="1560" y="880" as="targetPoint" />
          </mxGeometry>
        </mxCell>
        <mxCell id="m6Hq1n8jbl_uhr_pyz6t-75" value="" style="endArrow=none;html=1;rounded=0;" parent="1" edge="1">
          <mxGeometry width="50" height="50" relative="1" as="geometry">
            <mxPoint x="1400" y="920" as="sourcePoint" />
            <mxPoint x="1600" y="920" as="targetPoint" />
          </mxGeometry>
        </mxCell>
        <mxCell id="m6Hq1n8jbl_uhr_pyz6t-76" value="" style="endArrow=none;html=1;rounded=0;" parent="1" edge="1">
          <mxGeometry width="50" height="50" relative="1" as="geometry">
            <mxPoint x="1440" y="960" as="sourcePoint" />
            <mxPoint x="1640" y="960" as="targetPoint" />
          </mxGeometry>
        </mxCell>
        <mxCell id="m6Hq1n8jbl_uhr_pyz6t-88" value="" style="endArrow=none;html=1;rounded=0;" parent="1" edge="1">
          <mxGeometry width="50" height="50" relative="1" as="geometry">
            <mxPoint x="1220" y="840" as="sourcePoint" />
            <mxPoint x="1285" y="840" as="targetPoint" />
          </mxGeometry>
        </mxCell>
        <mxCell id="m6Hq1n8jbl_uhr_pyz6t-89" value="" style="endArrow=none;html=1;rounded=0;" parent="1" edge="1">
          <mxGeometry width="50" height="50" relative="1" as="geometry">
            <mxPoint x="1220" y="800" as="sourcePoint" />
            <mxPoint x="1255" y="800" as="targetPoint" />
          </mxGeometry>
        </mxCell>
        <mxCell id="m6Hq1n8jbl_uhr_pyz6t-91" value="" style="curved=1;endArrow=none;html=1;rounded=0;endFill=0;" parent="1" edge="1">
          <mxGeometry width="50" height="50" relative="1" as="geometry">
            <mxPoint x="1480" y="800" as="sourcePoint" />
            <mxPoint x="1520" y="800" as="targetPoint" />
            <Array as="points">
              <mxPoint x="1500" y="760" />
            </Array>
          </mxGeometry>
        </mxCell>
        <mxCell id="m6Hq1n8jbl_uhr_pyz6t-92" value="" style="curved=1;endArrow=none;html=1;rounded=0;endFill=0;" parent="1" edge="1">
          <mxGeometry width="50" height="50" relative="1" as="geometry">
            <mxPoint x="1520" y="840" as="sourcePoint" />
            <mxPoint x="1560" y="840" as="targetPoint" />
            <Array as="points">
              <mxPoint x="1540" y="800" />
            </Array>
          </mxGeometry>
        </mxCell>
        <mxCell id="m6Hq1n8jbl_uhr_pyz6t-93" value="" style="curved=1;endArrow=none;html=1;rounded=0;endFill=0;" parent="1" edge="1">
          <mxGeometry width="50" height="50" relative="1" as="geometry">
            <mxPoint x="1680" y="760" as="sourcePoint" />
            <mxPoint x="1720" y="760" as="targetPoint" />
            <Array as="points">
              <mxPoint x="1700" y="720" />
            </Array>
          </mxGeometry>
        </mxCell>
        <mxCell id="m6Hq1n8jbl_uhr_pyz6t-94" value="" style="curved=1;endArrow=none;html=1;rounded=0;endFill=0;" parent="1" edge="1">
          <mxGeometry width="50" height="50" relative="1" as="geometry">
            <mxPoint x="1560" y="880" as="sourcePoint" />
            <mxPoint x="1600" y="880" as="targetPoint" />
            <Array as="points">
              <mxPoint x="1580" y="840" />
            </Array>
          </mxGeometry>
        </mxCell>
        <mxCell id="m6Hq1n8jbl_uhr_pyz6t-95" value="" style="curved=1;endArrow=none;html=1;rounded=0;endFill=0;" parent="1" edge="1">
          <mxGeometry width="50" height="50" relative="1" as="geometry">
            <mxPoint x="1600" y="920" as="sourcePoint" />
            <mxPoint x="1640" y="920" as="targetPoint" />
            <Array as="points">
              <mxPoint x="1620" y="880" />
            </Array>
          </mxGeometry>
        </mxCell>
        <mxCell id="m6Hq1n8jbl_uhr_pyz6t-96" value="" style="curved=1;endArrow=none;html=1;rounded=0;endFill=0;" parent="1" edge="1">
          <mxGeometry width="50" height="50" relative="1" as="geometry">
            <mxPoint x="1640" y="960" as="sourcePoint" />
            <mxPoint x="1680" y="960" as="targetPoint" />
            <Array as="points">
              <mxPoint x="1660" y="920" />
            </Array>
          </mxGeometry>
        </mxCell>
        <mxCell id="m6Hq1n8jbl_uhr_pyz6t-97" value="" style="curved=1;endArrow=none;html=1;rounded=0;endFill=0;" parent="1" edge="1">
          <mxGeometry width="50" height="50" relative="1" as="geometry">
            <mxPoint x="1720" y="800" as="sourcePoint" />
            <mxPoint x="1760" y="800" as="targetPoint" />
            <Array as="points">
              <mxPoint x="1740" y="760" />
            </Array>
          </mxGeometry>
        </mxCell>
        <mxCell id="m6Hq1n8jbl_uhr_pyz6t-98" value="" style="curved=1;endArrow=none;html=1;rounded=0;endFill=0;" parent="1" edge="1">
          <mxGeometry width="50" height="50" relative="1" as="geometry">
            <mxPoint x="1760" y="840" as="sourcePoint" />
            <mxPoint x="1800" y="840" as="targetPoint" />
            <Array as="points">
              <mxPoint x="1780" y="800" />
            </Array>
          </mxGeometry>
        </mxCell>
        <mxCell id="m6Hq1n8jbl_uhr_pyz6t-99" value="" style="curved=1;endArrow=none;html=1;rounded=0;endFill=0;" parent="1" edge="1">
          <mxGeometry width="50" height="50" relative="1" as="geometry">
            <mxPoint x="1255" y="800" as="sourcePoint" />
            <mxPoint x="1280" y="800" as="targetPoint" />
            <Array as="points">
              <mxPoint x="1268" y="760" />
            </Array>
          </mxGeometry>
        </mxCell>
        <mxCell id="m6Hq1n8jbl_uhr_pyz6t-100" value="" style="curved=1;endArrow=none;html=1;rounded=0;endFill=0;" parent="1" edge="1">
          <mxGeometry width="50" height="50" relative="1" as="geometry">
            <mxPoint x="1285" y="840" as="sourcePoint" />
            <mxPoint x="1320" y="840" as="targetPoint" />
            <Array as="points">
              <mxPoint x="1302" y="800" />
            </Array>
          </mxGeometry>
        </mxCell>
        <mxCell id="m6Hq1n8jbl_uhr_pyz6t-102" value="" style="curved=1;endArrow=none;html=1;rounded=0;endFill=0;" parent="1" edge="1">
          <mxGeometry width="50" height="50" relative="1" as="geometry">
            <mxPoint x="1220" y="920" as="sourcePoint" />
            <mxPoint x="1228" y="920" as="targetPoint" />
            <Array as="points">
              <mxPoint x="1224" y="880" />
            </Array>
          </mxGeometry>
        </mxCell>
        <mxCell id="m6Hq1n8jbl_uhr_pyz6t-103" value="" style="curved=1;endArrow=none;html=1;rounded=0;endFill=0;" parent="1" edge="1">
          <mxGeometry width="50" height="50" relative="1" as="geometry">
            <mxPoint x="1400" y="960" as="sourcePoint" />
            <mxPoint x="1440" y="960" as="targetPoint" />
            <Array as="points">
              <mxPoint x="1420" y="920" />
            </Array>
          </mxGeometry>
        </mxCell>
        <mxCell id="m6Hq1n8jbl_uhr_pyz6t-104" value="" style="endArrow=none;html=1;rounded=0;" parent="1" edge="1">
          <mxGeometry width="50" height="50" relative="1" as="geometry">
            <mxPoint x="1220" y="880" as="sourcePoint" />
            <mxPoint x="1320" y="880" as="targetPoint" />
          </mxGeometry>
        </mxCell>
        <mxCell id="m6Hq1n8jbl_uhr_pyz6t-106" value="" style="endArrow=none;html=1;rounded=0;" parent="1" edge="1">
          <mxGeometry width="50" height="50" relative="1" as="geometry">
            <mxPoint x="1235" y="960" as="sourcePoint" />
            <mxPoint x="1400" y="960" as="targetPoint" />
          </mxGeometry>
        </mxCell>
        <mxCell id="m6Hq1n8jbl_uhr_pyz6t-107" value="" style="endArrow=none;html=1;rounded=0;" parent="1" edge="1">
          <mxGeometry width="50" height="50" relative="1" as="geometry">
            <mxPoint x="1720" y="760" as="sourcePoint" />
            <mxPoint x="1800" y="760" as="targetPoint" />
          </mxGeometry>
        </mxCell>
        <mxCell id="m6Hq1n8jbl_uhr_pyz6t-108" value="" style="endArrow=none;html=1;rounded=0;" parent="1" edge="1">
          <mxGeometry width="50" height="50" relative="1" as="geometry">
            <mxPoint x="1760" y="800" as="sourcePoint" />
            <mxPoint x="1800" y="800" as="targetPoint" />
          </mxGeometry>
        </mxCell>
        <mxCell id="m6Hq1n8jbl_uhr_pyz6t-110" value="" style="ellipse;whiteSpace=wrap;html=1;aspect=fixed;fillColor=#dae8fc;strokeColor=#6c8ebf;" parent="1" vertex="1">
          <mxGeometry x="1255" y="155" width="10" height="10" as="geometry" />
        </mxCell>
        <mxCell id="m6Hq1n8jbl_uhr_pyz6t-111" value="" style="ellipse;whiteSpace=wrap;html=1;aspect=fixed;fillColor=#d5e8d4;strokeColor=#82b366;" parent="1" vertex="1">
          <mxGeometry x="1315" y="155" width="10" height="10" as="geometry" />
        </mxCell>
        <mxCell id="m6Hq1n8jbl_uhr_pyz6t-112" value="" style="ellipse;whiteSpace=wrap;html=1;aspect=fixed;fillColor=#ffe6cc;strokeColor=#d79b00;" parent="1" vertex="1">
          <mxGeometry x="1435" y="155" width="10" height="10" as="geometry" />
        </mxCell>
        <mxCell id="m6Hq1n8jbl_uhr_pyz6t-141" value="" style="ellipse;whiteSpace=wrap;html=1;aspect=fixed;fillColor=#dae8fc;strokeColor=#6c8ebf;" parent="1" vertex="1">
          <mxGeometry x="1275" y="195" width="10" height="10" as="geometry" />
        </mxCell>
        <mxCell id="m6Hq1n8jbl_uhr_pyz6t-142" value="" style="ellipse;whiteSpace=wrap;html=1;aspect=fixed;fillColor=#d5e8d4;strokeColor=#82b366;" parent="1" vertex="1">
          <mxGeometry x="1355" y="195" width="10" height="10" as="geometry" />
        </mxCell>
        <mxCell id="m6Hq1n8jbl_uhr_pyz6t-143" value="" style="ellipse;whiteSpace=wrap;html=1;aspect=fixed;fillColor=#ffe6cc;strokeColor=#d79b00;" parent="1" vertex="1">
          <mxGeometry x="1475" y="195" width="10" height="10" as="geometry" />
        </mxCell>
        <mxCell id="m6Hq1n8jbl_uhr_pyz6t-145" value="" style="ellipse;whiteSpace=wrap;html=1;aspect=fixed;fillColor=#dae8fc;strokeColor=#6c8ebf;" parent="1" vertex="1">
          <mxGeometry x="1295" y="235" width="10" height="10" as="geometry" />
        </mxCell>
        <mxCell id="m6Hq1n8jbl_uhr_pyz6t-146" value="" style="ellipse;whiteSpace=wrap;html=1;aspect=fixed;fillColor=#d5e8d4;strokeColor=#82b366;" parent="1" vertex="1">
          <mxGeometry x="1395" y="235" width="10" height="10" as="geometry" />
        </mxCell>
        <mxCell id="m6Hq1n8jbl_uhr_pyz6t-147" value="" style="ellipse;whiteSpace=wrap;html=1;aspect=fixed;fillColor=#ffe6cc;strokeColor=#d79b00;" parent="1" vertex="1">
          <mxGeometry x="1515" y="235" width="10" height="10" as="geometry" />
        </mxCell>
        <mxCell id="m6Hq1n8jbl_uhr_pyz6t-149" value="" style="ellipse;whiteSpace=wrap;html=1;aspect=fixed;fillColor=#dae8fc;strokeColor=#6c8ebf;" parent="1" vertex="1">
          <mxGeometry x="1255" y="272.5" width="10" height="10" as="geometry" />
        </mxCell>
        <mxCell id="m6Hq1n8jbl_uhr_pyz6t-150" value="" style="ellipse;whiteSpace=wrap;html=1;aspect=fixed;fillColor=#d5e8d4;strokeColor=#82b366;" parent="1" vertex="1">
          <mxGeometry x="1255" y="277.5" width="10" height="10" as="geometry" />
        </mxCell>
        <mxCell id="m6Hq1n8jbl_uhr_pyz6t-151" value="" style="ellipse;whiteSpace=wrap;html=1;aspect=fixed;fillColor=#ffe6cc;strokeColor=#d79b00;" parent="1" vertex="1">
          <mxGeometry x="1315" y="275" width="10" height="10" as="geometry" />
        </mxCell>
        <mxCell id="m6Hq1n8jbl_uhr_pyz6t-153" value="" style="ellipse;whiteSpace=wrap;html=1;aspect=fixed;fillColor=#dae8fc;strokeColor=#6c8ebf;" parent="1" vertex="1">
          <mxGeometry x="1255" y="315" width="10" height="10" as="geometry" />
        </mxCell>
        <mxCell id="m6Hq1n8jbl_uhr_pyz6t-154" value="" style="ellipse;whiteSpace=wrap;html=1;aspect=fixed;fillColor=#d5e8d4;strokeColor=#82b366;" parent="1" vertex="1">
          <mxGeometry x="1275" y="315" width="10" height="10" as="geometry" />
        </mxCell>
        <mxCell id="m6Hq1n8jbl_uhr_pyz6t-155" value="" style="ellipse;whiteSpace=wrap;html=1;aspect=fixed;fillColor=#ffe6cc;strokeColor=#d79b00;" parent="1" vertex="1">
          <mxGeometry x="1355" y="315" width="10" height="10" as="geometry" />
        </mxCell>
        <mxCell id="m6Hq1n8jbl_uhr_pyz6t-157" value="" style="ellipse;whiteSpace=wrap;html=1;aspect=fixed;fillColor=#dae8fc;strokeColor=#6c8ebf;" parent="1" vertex="1">
          <mxGeometry x="1255" y="355" width="10" height="10" as="geometry" />
        </mxCell>
        <mxCell id="m6Hq1n8jbl_uhr_pyz6t-158" value="" style="ellipse;whiteSpace=wrap;html=1;aspect=fixed;fillColor=#d5e8d4;strokeColor=#82b366;" parent="1" vertex="1">
          <mxGeometry x="1295" y="355" width="10" height="10" as="geometry" />
        </mxCell>
        <mxCell id="m6Hq1n8jbl_uhr_pyz6t-159" value="" style="ellipse;whiteSpace=wrap;html=1;aspect=fixed;fillColor=#ffe6cc;strokeColor=#d79b00;" parent="1" vertex="1">
          <mxGeometry x="1395" y="355" width="10" height="10" as="geometry" />
        </mxCell>
        <mxCell id="m6Hq1n8jbl_uhr_pyz6t-161" value="" style="ellipse;whiteSpace=wrap;html=1;aspect=fixed;fillColor=#dae8fc;strokeColor=#6c8ebf;" parent="1" vertex="1">
          <mxGeometry x="1215" y="755" width="10" height="10" as="geometry" />
        </mxCell>
        <mxCell id="m6Hq1n8jbl_uhr_pyz6t-162" value="" style="ellipse;whiteSpace=wrap;html=1;aspect=fixed;fillColor=#d5e8d4;strokeColor=#82b366;" parent="1" vertex="1">
          <mxGeometry x="1235" y="755" width="10" height="10" as="geometry" />
        </mxCell>
        <mxCell id="m6Hq1n8jbl_uhr_pyz6t-163" value="" style="ellipse;whiteSpace=wrap;html=1;aspect=fixed;fillColor=#ffe6cc;strokeColor=#d79b00;" parent="1" vertex="1">
          <mxGeometry x="1435" y="755" width="10" height="10" as="geometry" />
        </mxCell>
        <mxCell id="m6Hq1n8jbl_uhr_pyz6t-173" value="" style="ellipse;whiteSpace=wrap;html=1;aspect=fixed;fillColor=#dae8fc;strokeColor=#6c8ebf;" parent="1" vertex="1">
          <mxGeometry x="1250" y="795" width="10" height="10" as="geometry" />
        </mxCell>
        <mxCell id="m6Hq1n8jbl_uhr_pyz6t-174" value="" style="ellipse;whiteSpace=wrap;html=1;aspect=fixed;fillColor=#d5e8d4;strokeColor=#82b366;" parent="1" vertex="1">
          <mxGeometry x="1275" y="795" width="10" height="10" as="geometry" />
        </mxCell>
        <mxCell id="m6Hq1n8jbl_uhr_pyz6t-175" value="" style="ellipse;whiteSpace=wrap;html=1;aspect=fixed;fillColor=#ffe6cc;strokeColor=#d79b00;" parent="1" vertex="1">
          <mxGeometry x="1475" y="795" width="10" height="10" as="geometry" />
        </mxCell>
        <mxCell id="m6Hq1n8jbl_uhr_pyz6t-177" value="" style="ellipse;whiteSpace=wrap;html=1;aspect=fixed;fillColor=#dae8fc;strokeColor=#6c8ebf;" parent="1" vertex="1">
          <mxGeometry x="1280" y="835" width="10" height="10" as="geometry" />
        </mxCell>
        <mxCell id="m6Hq1n8jbl_uhr_pyz6t-178" value="" style="ellipse;whiteSpace=wrap;html=1;aspect=fixed;fillColor=#d5e8d4;strokeColor=#82b366;" parent="1" vertex="1">
          <mxGeometry x="1315" y="835" width="10" height="10" as="geometry" />
        </mxCell>
        <mxCell id="m6Hq1n8jbl_uhr_pyz6t-181" value="" style="ellipse;whiteSpace=wrap;html=1;aspect=fixed;fillColor=#dae8fc;strokeColor=#6c8ebf;" parent="1" vertex="1">
          <mxGeometry x="1215" y="872.5" width="10" height="10" as="geometry" />
        </mxCell>
        <mxCell id="m6Hq1n8jbl_uhr_pyz6t-182" value="" style="ellipse;whiteSpace=wrap;html=1;aspect=fixed;fillColor=#d5e8d4;strokeColor=#82b366;" parent="1" vertex="1">
          <mxGeometry x="1215" y="877.5" width="10" height="10" as="geometry" />
        </mxCell>
        <mxCell id="m6Hq1n8jbl_uhr_pyz6t-185" value="" style="ellipse;whiteSpace=wrap;html=1;aspect=fixed;fillColor=#dae8fc;strokeColor=#6c8ebf;" parent="1" vertex="1">
          <mxGeometry x="1215" y="915" width="10" height="10" as="geometry" />
        </mxCell>
        <mxCell id="m6Hq1n8jbl_uhr_pyz6t-187" value="" style="ellipse;whiteSpace=wrap;html=1;aspect=fixed;fillColor=#ffe6cc;strokeColor=#d79b00;" parent="1" vertex="1">
          <mxGeometry x="1395" y="955" width="10" height="10" as="geometry" />
        </mxCell>
        <mxCell id="m6Hq1n8jbl_uhr_pyz6t-191" value="" style="ellipse;whiteSpace=wrap;html=1;aspect=fixed;fillColor=#ffe6cc;strokeColor=#d79b00;" parent="1" vertex="1">
          <mxGeometry x="1515" y="835" width="10" height="10" as="geometry" />
        </mxCell>
        <mxCell id="qLW1L5lnLSKJS9rqXbAG-1" value="" style="curved=1;endArrow=none;html=1;rounded=0;endFill=0;" parent="1" edge="1">
          <mxGeometry width="50" height="50" relative="1" as="geometry">
            <mxPoint x="1220" y="960" as="sourcePoint" />
            <mxPoint x="1235" y="960" as="targetPoint" />
            <Array as="points">
              <mxPoint x="1228" y="920" />
            </Array>
          </mxGeometry>
        </mxCell>
        <mxCell id="m6Hq1n8jbl_uhr_pyz6t-189" value="" style="ellipse;whiteSpace=wrap;html=1;aspect=fixed;fillColor=#dae8fc;strokeColor=#6c8ebf;" parent="1" vertex="1">
          <mxGeometry x="1215" y="955" width="10" height="10" as="geometry" />
        </mxCell>
        <mxCell id="m6Hq1n8jbl_uhr_pyz6t-190" value="" style="ellipse;whiteSpace=wrap;html=1;aspect=fixed;fillColor=#d5e8d4;strokeColor=#82b366;" parent="1" vertex="1">
          <mxGeometry x="1230" y="955" width="10" height="10" as="geometry" />
        </mxCell>
        <mxCell id="qLW1L5lnLSKJS9rqXbAG-2" value="" style="curved=1;endArrow=none;html=1;rounded=0;endFill=0;" parent="1" edge="1">
          <mxGeometry width="50" height="50" relative="1" as="geometry">
            <mxPoint x="1320" y="880" as="sourcePoint" />
            <mxPoint x="1360" y="880" as="targetPoint" />
            <Array as="points">
              <mxPoint x="1340" y="840" />
            </Array>
          </mxGeometry>
        </mxCell>
        <mxCell id="qLW1L5lnLSKJS9rqXbAG-3" value="" style="ellipse;whiteSpace=wrap;html=1;aspect=fixed;fillColor=#ffe6cc;strokeColor=#d79b00;" parent="1" vertex="1">
          <mxGeometry x="1315" y="875" width="10" height="10" as="geometry" />
        </mxCell>
        <mxCell id="qLW1L5lnLSKJS9rqXbAG-5" value="" style="curved=1;endArrow=none;html=1;rounded=0;endFill=0;" parent="1" edge="1">
          <mxGeometry width="50" height="50" relative="1" as="geometry">
            <mxPoint x="1360" y="920" as="sourcePoint" />
            <mxPoint x="1400" y="920" as="targetPoint" />
            <Array as="points">
              <mxPoint x="1380" y="880" />
            </Array>
          </mxGeometry>
        </mxCell>
        <mxCell id="qLW1L5lnLSKJS9rqXbAG-8" value="" style="endArrow=none;html=1;rounded=0;" parent="1" edge="1">
          <mxGeometry width="50" height="50" relative="1" as="geometry">
            <mxPoint x="1228" y="920" as="sourcePoint" />
            <mxPoint x="1360" y="920" as="targetPoint" />
          </mxGeometry>
        </mxCell>
        <mxCell id="qLW1L5lnLSKJS9rqXbAG-6" value="" style="ellipse;whiteSpace=wrap;html=1;aspect=fixed;fillColor=#ffe6cc;strokeColor=#d79b00;" parent="1" vertex="1">
          <mxGeometry x="1355" y="915" width="10" height="10" as="geometry" />
        </mxCell>
        <mxCell id="m6Hq1n8jbl_uhr_pyz6t-186" value="" style="ellipse;whiteSpace=wrap;html=1;aspect=fixed;fillColor=#d5e8d4;strokeColor=#82b366;" parent="1" vertex="1">
          <mxGeometry x="1225" y="915" width="10" height="10" as="geometry" />
        </mxCell>
        <mxCell id="YvcrIMlFE6TmQWKb2FMt-1" value="" style="endArrow=none;dashed=1;html=1;rounded=0;fillColor=#f5f5f5;strokeColor=#C2C2C2;" parent="1" edge="1">
          <mxGeometry width="50" height="50" relative="1" as="geometry">
            <mxPoint x="1320" y="980" as="sourcePoint" />
            <mxPoint x="1320" y="720" as="targetPoint" />
          </mxGeometry>
        </mxCell>
        <mxCell id="YvcrIMlFE6TmQWKb2FMt-3" value="" style="curved=1;endArrow=none;html=1;rounded=0;endFill=0;" parent="1" edge="1">
          <mxGeometry width="50" height="50" relative="1" as="geometry">
            <mxPoint x="1440" y="460" as="sourcePoint" />
            <mxPoint x="1520" y="460" as="targetPoint" />
            <Array as="points">
              <mxPoint x="1480" y="420" />
            </Array>
          </mxGeometry>
        </mxCell>
        <mxCell id="YvcrIMlFE6TmQWKb2FMt-4" value="" style="endArrow=none;dashed=1;html=1;rounded=0;fillColor=#f5f5f5;strokeColor=#C2C2C2;" parent="1" edge="1">
          <mxGeometry width="50" height="50" relative="1" as="geometry">
            <mxPoint x="1320" y="680" as="sourcePoint" />
            <mxPoint x="1320" y="420" as="targetPoint" />
          </mxGeometry>
        </mxCell>
        <mxCell id="YvcrIMlFE6TmQWKb2FMt-5" value="" style="curved=1;endArrow=none;html=1;rounded=0;endFill=0;" parent="1" edge="1">
          <mxGeometry width="50" height="50" relative="1" as="geometry">
            <mxPoint x="1240" y="460" as="sourcePoint" />
            <mxPoint x="1280" y="460" as="targetPoint" />
            <Array as="points">
              <mxPoint x="1260" y="420" />
            </Array>
          </mxGeometry>
        </mxCell>
        <mxCell id="YvcrIMlFE6TmQWKb2FMt-6" value="" style="endArrow=none;html=1;rounded=0;" parent="1" edge="1">
          <mxGeometry width="50" height="50" relative="1" as="geometry">
            <mxPoint x="1520" y="460" as="sourcePoint" />
            <mxPoint x="1680" y="460" as="targetPoint" />
          </mxGeometry>
        </mxCell>
        <mxCell id="YvcrIMlFE6TmQWKb2FMt-7" value="" style="curved=1;endArrow=none;html=1;rounded=0;endFill=0;" parent="1" edge="1">
          <mxGeometry width="50" height="50" relative="1" as="geometry">
            <mxPoint x="1680" y="460" as="sourcePoint" />
            <mxPoint x="1760" y="460" as="targetPoint" />
            <Array as="points">
              <mxPoint x="1720" y="420" />
            </Array>
          </mxGeometry>
        </mxCell>
        <mxCell id="YvcrIMlFE6TmQWKb2FMt-8" value="" style="curved=1;endArrow=none;html=1;rounded=0;endFill=0;" parent="1" edge="1">
          <mxGeometry width="50" height="50" relative="1" as="geometry">
            <mxPoint x="1480" y="500" as="sourcePoint" />
            <mxPoint x="1560" y="500" as="targetPoint" />
            <Array as="points">
              <mxPoint x="1520" y="460" />
            </Array>
          </mxGeometry>
        </mxCell>
        <mxCell id="YvcrIMlFE6TmQWKb2FMt-9" value="" style="endArrow=none;html=1;rounded=0;" parent="1" edge="1">
          <mxGeometry width="50" height="50" relative="1" as="geometry">
            <mxPoint x="1560" y="500" as="sourcePoint" />
            <mxPoint x="1720" y="500" as="targetPoint" />
          </mxGeometry>
        </mxCell>
        <mxCell id="YvcrIMlFE6TmQWKb2FMt-10" value="" style="curved=1;endArrow=none;html=1;rounded=0;endFill=0;" parent="1" edge="1">
          <mxGeometry width="50" height="50" relative="1" as="geometry">
            <mxPoint x="1520" y="540" as="sourcePoint" />
            <mxPoint x="1600" y="540" as="targetPoint" />
            <Array as="points">
              <mxPoint x="1560" y="500" />
            </Array>
          </mxGeometry>
        </mxCell>
        <mxCell id="YvcrIMlFE6TmQWKb2FMt-11" value="" style="endArrow=none;html=1;rounded=0;" parent="1" edge="1">
          <mxGeometry width="50" height="50" relative="1" as="geometry">
            <mxPoint x="1600" y="540" as="sourcePoint" />
            <mxPoint x="1760" y="540" as="targetPoint" />
          </mxGeometry>
        </mxCell>
        <mxCell id="YvcrIMlFE6TmQWKb2FMt-12" value="" style="curved=1;endArrow=none;html=1;rounded=0;endFill=0;" parent="1" edge="1">
          <mxGeometry width="50" height="50" relative="1" as="geometry">
            <mxPoint x="1560" y="580" as="sourcePoint" />
            <mxPoint x="1640" y="580" as="targetPoint" />
            <Array as="points">
              <mxPoint x="1600" y="540" />
            </Array>
          </mxGeometry>
        </mxCell>
        <mxCell id="YvcrIMlFE6TmQWKb2FMt-13" value="" style="endArrow=none;html=1;rounded=0;" parent="1" edge="1">
          <mxGeometry width="50" height="50" relative="1" as="geometry">
            <mxPoint x="1640" y="580" as="sourcePoint" />
            <mxPoint x="1800" y="580" as="targetPoint" />
          </mxGeometry>
        </mxCell>
        <mxCell id="YvcrIMlFE6TmQWKb2FMt-14" value="" style="curved=1;endArrow=none;html=1;rounded=0;endFill=0;" parent="1" edge="1">
          <mxGeometry width="50" height="50" relative="1" as="geometry">
            <mxPoint x="1600" y="620" as="sourcePoint" />
            <mxPoint x="1680" y="620" as="targetPoint" />
            <Array as="points">
              <mxPoint x="1640" y="580" />
            </Array>
          </mxGeometry>
        </mxCell>
        <mxCell id="YvcrIMlFE6TmQWKb2FMt-15" value="" style="endArrow=none;html=1;rounded=0;" parent="1" edge="1">
          <mxGeometry width="50" height="50" relative="1" as="geometry">
            <mxPoint x="1680" y="620" as="sourcePoint" />
            <mxPoint x="1800" y="620" as="targetPoint" />
          </mxGeometry>
        </mxCell>
        <mxCell id="YvcrIMlFE6TmQWKb2FMt-16" value="" style="endArrow=none;html=1;rounded=0;" parent="1" edge="1">
          <mxGeometry width="50" height="50" relative="1" as="geometry">
            <mxPoint x="1720" y="660" as="sourcePoint" />
            <mxPoint x="1800" y="660" as="targetPoint" />
          </mxGeometry>
        </mxCell>
        <mxCell id="YvcrIMlFE6TmQWKb2FMt-17" value="" style="curved=1;endArrow=none;html=1;rounded=0;endFill=0;" parent="1" edge="1">
          <mxGeometry width="50" height="50" relative="1" as="geometry">
            <mxPoint x="1640" y="660" as="sourcePoint" />
            <mxPoint x="1720" y="660" as="targetPoint" />
            <Array as="points">
              <mxPoint x="1680" y="620" />
            </Array>
          </mxGeometry>
        </mxCell>
        <mxCell id="YvcrIMlFE6TmQWKb2FMt-18" value="" style="curved=1;endArrow=none;html=1;rounded=0;endFill=0;" parent="1" edge="1">
          <mxGeometry width="50" height="50" relative="1" as="geometry">
            <mxPoint x="1720" y="500" as="sourcePoint" />
            <mxPoint x="1800" y="500" as="targetPoint" />
            <Array as="points">
              <mxPoint x="1760" y="460" />
            </Array>
          </mxGeometry>
        </mxCell>
        <mxCell id="YvcrIMlFE6TmQWKb2FMt-19" value="" style="curved=1;endArrow=none;html=1;rounded=0;endFill=0;" parent="1" edge="1">
          <mxGeometry width="50" height="50" relative="1" as="geometry">
            <mxPoint x="1760" y="540" as="sourcePoint" />
            <mxPoint x="1800" y="520" as="targetPoint" />
            <Array as="points">
              <mxPoint x="1780" y="520" />
            </Array>
          </mxGeometry>
        </mxCell>
        <mxCell id="YvcrIMlFE6TmQWKb2FMt-20" value="" style="endArrow=none;dashed=1;html=1;rounded=0;fillColor=#f5f5f5;strokeColor=#C2C2C2;" parent="1" edge="1">
          <mxGeometry width="50" height="50" relative="1" as="geometry">
            <mxPoint x="1240" y="680" as="sourcePoint" />
            <mxPoint x="1240" y="420" as="targetPoint" />
          </mxGeometry>
        </mxCell>
        <mxCell id="YvcrIMlFE6TmQWKb2FMt-21" value="" style="endArrow=none;dashed=1;html=1;rounded=0;fillColor=#f5f5f5;strokeColor=#C2C2C2;" parent="1" edge="1">
          <mxGeometry width="50" height="50" relative="1" as="geometry">
            <mxPoint x="1440" y="680" as="sourcePoint" />
            <mxPoint x="1440" y="420" as="targetPoint" />
          </mxGeometry>
        </mxCell>
        <mxCell id="YvcrIMlFE6TmQWKb2FMt-22" value="" style="endArrow=none;dashed=1;html=1;rounded=0;fillColor=#f5f5f5;strokeColor=#C2C2C2;" parent="1" edge="1">
          <mxGeometry width="50" height="50" relative="1" as="geometry">
            <mxPoint x="1560" y="680" as="sourcePoint" />
            <mxPoint x="1560" y="420" as="targetPoint" />
          </mxGeometry>
        </mxCell>
        <mxCell id="YvcrIMlFE6TmQWKb2FMt-23" value="" style="endArrow=none;dashed=1;html=1;rounded=0;fillColor=#f5f5f5;strokeColor=#C2C2C2;" parent="1" edge="1">
          <mxGeometry width="50" height="50" relative="1" as="geometry">
            <mxPoint x="1680" y="680" as="sourcePoint" />
            <mxPoint x="1680" y="420" as="targetPoint" />
          </mxGeometry>
        </mxCell>
        <mxCell id="YvcrIMlFE6TmQWKb2FMt-24" value="" style="endArrow=none;dashed=1;html=1;rounded=0;fillColor=#f5f5f5;strokeColor=#C2C2C2;" parent="1" edge="1">
          <mxGeometry width="50" height="50" relative="1" as="geometry">
            <mxPoint x="1800" y="680" as="sourcePoint" />
            <mxPoint x="1800" y="420" as="targetPoint" />
          </mxGeometry>
        </mxCell>
        <mxCell id="YvcrIMlFE6TmQWKb2FMt-25" value="" style="endArrow=none;html=1;rounded=0;" parent="1" edge="1">
          <mxGeometry width="50" height="50" relative="1" as="geometry">
            <mxPoint x="1320" y="500" as="sourcePoint" />
            <mxPoint x="1480" y="500" as="targetPoint" />
          </mxGeometry>
        </mxCell>
        <mxCell id="YvcrIMlFE6TmQWKb2FMt-26" value="" style="endArrow=none;html=1;rounded=0;" parent="1" edge="1">
          <mxGeometry width="50" height="50" relative="1" as="geometry">
            <mxPoint x="1360" y="540" as="sourcePoint" />
            <mxPoint x="1520" y="540" as="targetPoint" />
          </mxGeometry>
        </mxCell>
        <mxCell id="YvcrIMlFE6TmQWKb2FMt-27" value="" style="endArrow=none;html=1;rounded=0;" parent="1" edge="1">
          <mxGeometry width="50" height="50" relative="1" as="geometry">
            <mxPoint x="1400" y="580" as="sourcePoint" />
            <mxPoint x="1560" y="580" as="targetPoint" />
          </mxGeometry>
        </mxCell>
        <mxCell id="YvcrIMlFE6TmQWKb2FMt-28" value="" style="endArrow=none;html=1;rounded=0;" parent="1" edge="1">
          <mxGeometry width="50" height="50" relative="1" as="geometry">
            <mxPoint x="1440" y="620" as="sourcePoint" />
            <mxPoint x="1600" y="620" as="targetPoint" />
          </mxGeometry>
        </mxCell>
        <mxCell id="YvcrIMlFE6TmQWKb2FMt-29" value="" style="endArrow=none;html=1;rounded=0;" parent="1" edge="1">
          <mxGeometry width="50" height="50" relative="1" as="geometry">
            <mxPoint x="1480" y="660" as="sourcePoint" />
            <mxPoint x="1640" y="660" as="targetPoint" />
          </mxGeometry>
        </mxCell>
        <mxCell id="YvcrIMlFE6TmQWKb2FMt-30" value="" style="curved=1;endArrow=none;html=1;rounded=0;endFill=0;" parent="1" edge="1">
          <mxGeometry width="50" height="50" relative="1" as="geometry">
            <mxPoint x="1400" y="660" as="sourcePoint" />
            <mxPoint x="1480" y="660" as="targetPoint" />
            <Array as="points">
              <mxPoint x="1440" y="620" />
            </Array>
          </mxGeometry>
        </mxCell>
        <mxCell id="YvcrIMlFE6TmQWKb2FMt-31" value="" style="curved=1;endArrow=none;html=1;rounded=0;endFill=0;" parent="1" edge="1">
          <mxGeometry width="50" height="50" relative="1" as="geometry">
            <mxPoint x="1360" y="620" as="sourcePoint" />
            <mxPoint x="1440" y="620" as="targetPoint" />
            <Array as="points">
              <mxPoint x="1400" y="580" />
            </Array>
          </mxGeometry>
        </mxCell>
        <mxCell id="YvcrIMlFE6TmQWKb2FMt-32" value="" style="curved=1;endArrow=none;html=1;rounded=0;endFill=0;" parent="1" edge="1">
          <mxGeometry width="50" height="50" relative="1" as="geometry">
            <mxPoint x="1320" y="580" as="sourcePoint" />
            <mxPoint x="1400" y="580" as="targetPoint" />
            <Array as="points">
              <mxPoint x="1360" y="540" />
            </Array>
          </mxGeometry>
        </mxCell>
        <mxCell id="YvcrIMlFE6TmQWKb2FMt-33" value="" style="curved=1;endArrow=none;html=1;rounded=0;endFill=0;" parent="1" edge="1">
          <mxGeometry width="50" height="50" relative="1" as="geometry">
            <mxPoint x="1294" y="540" as="sourcePoint" />
            <mxPoint x="1360" y="540" as="targetPoint" />
            <Array as="points">
              <mxPoint x="1325" y="500" />
            </Array>
          </mxGeometry>
        </mxCell>
        <mxCell id="YvcrIMlFE6TmQWKb2FMt-34" value="" style="curved=1;endArrow=none;html=1;rounded=0;endFill=0;" parent="1" edge="1">
          <mxGeometry width="50" height="50" relative="1" as="geometry">
            <mxPoint x="1264" y="500" as="sourcePoint" />
            <mxPoint x="1320" y="500" as="targetPoint" />
            <Array as="points">
              <mxPoint x="1290" y="460" />
            </Array>
          </mxGeometry>
        </mxCell>
        <mxCell id="YvcrIMlFE6TmQWKb2FMt-35" value="" style="endArrow=none;html=1;rounded=0;" parent="1" edge="1">
          <mxGeometry width="50" height="50" relative="1" as="geometry">
            <mxPoint x="1240" y="580" as="sourcePoint" />
            <mxPoint x="1320" y="580" as="targetPoint" />
          </mxGeometry>
        </mxCell>
        <mxCell id="YvcrIMlFE6TmQWKb2FMt-36" value="" style="curved=1;endArrow=none;html=1;rounded=0;endFill=0;" parent="1" edge="1">
          <mxGeometry width="50" height="50" relative="1" as="geometry">
            <mxPoint x="1240" y="620" as="sourcePoint" />
            <mxPoint x="1254" y="620" as="targetPoint" />
            <Array as="points">
              <mxPoint x="1248" y="580" />
            </Array>
          </mxGeometry>
        </mxCell>
        <mxCell id="YvcrIMlFE6TmQWKb2FMt-37" value="" style="endArrow=none;html=1;rounded=0;" parent="1" edge="1">
          <mxGeometry width="50" height="50" relative="1" as="geometry">
            <mxPoint x="1254" y="620" as="sourcePoint" />
            <mxPoint x="1360" y="620" as="targetPoint" />
          </mxGeometry>
        </mxCell>
        <mxCell id="YvcrIMlFE6TmQWKb2FMt-38" value="" style="curved=1;endArrow=none;html=1;rounded=0;endFill=0;" parent="1" edge="1">
          <mxGeometry width="50" height="50" relative="1" as="geometry">
            <mxPoint x="1240" y="660" as="sourcePoint" />
            <mxPoint x="1266" y="660" as="targetPoint" />
            <Array as="points">
              <mxPoint x="1254" y="620" />
            </Array>
          </mxGeometry>
        </mxCell>
        <mxCell id="YvcrIMlFE6TmQWKb2FMt-39" value="" style="endArrow=none;html=1;rounded=0;" parent="1" edge="1">
          <mxGeometry width="50" height="50" relative="1" as="geometry">
            <mxPoint x="1266" y="660" as="sourcePoint" />
            <mxPoint x="1400" y="660" as="targetPoint" />
          </mxGeometry>
        </mxCell>
        <mxCell id="YvcrIMlFE6TmQWKb2FMt-40" value="" style="endArrow=none;html=1;rounded=0;" parent="1" edge="1">
          <mxGeometry width="50" height="50" relative="1" as="geometry">
            <mxPoint x="1240" y="540" as="sourcePoint" />
            <mxPoint x="1294" y="540" as="targetPoint" />
          </mxGeometry>
        </mxCell>
        <mxCell id="YvcrIMlFE6TmQWKb2FMt-41" value="" style="endArrow=none;html=1;rounded=0;" parent="1" edge="1">
          <mxGeometry width="50" height="50" relative="1" as="geometry">
            <mxPoint x="1240" y="500" as="sourcePoint" />
            <mxPoint x="1264" y="500" as="targetPoint" />
          </mxGeometry>
        </mxCell>
        <mxCell id="YvcrIMlFE6TmQWKb2FMt-42" value="" style="ellipse;whiteSpace=wrap;html=1;aspect=fixed;fillColor=#dae8fc;strokeColor=#6c8ebf;" parent="1" vertex="1">
          <mxGeometry x="1235" y="455" width="10" height="10" as="geometry" />
        </mxCell>
        <mxCell id="YvcrIMlFE6TmQWKb2FMt-46" value="" style="ellipse;whiteSpace=wrap;html=1;aspect=fixed;fillColor=#dae8fc;strokeColor=#6c8ebf;" parent="1" vertex="1">
          <mxGeometry x="1260" y="494" width="10" height="10" as="geometry" />
        </mxCell>
        <mxCell id="YvcrIMlFE6TmQWKb2FMt-47" value="" style="ellipse;whiteSpace=wrap;html=1;aspect=fixed;fillColor=#d5e8d4;strokeColor=#82b366;" parent="1" vertex="1">
          <mxGeometry x="1315" y="495" width="10" height="10" as="geometry" />
        </mxCell>
        <mxCell id="YvcrIMlFE6TmQWKb2FMt-48" value="" style="ellipse;whiteSpace=wrap;html=1;aspect=fixed;fillColor=#ffe6cc;strokeColor=#d79b00;" parent="1" vertex="1">
          <mxGeometry x="1475" y="495" width="10" height="10" as="geometry" />
        </mxCell>
        <mxCell id="YvcrIMlFE6TmQWKb2FMt-50" value="" style="ellipse;whiteSpace=wrap;html=1;aspect=fixed;fillColor=#dae8fc;strokeColor=#6c8ebf;" parent="1" vertex="1">
          <mxGeometry x="1289" y="535" width="10" height="10" as="geometry" />
        </mxCell>
        <mxCell id="YvcrIMlFE6TmQWKb2FMt-51" value="" style="ellipse;whiteSpace=wrap;html=1;aspect=fixed;fillColor=#d5e8d4;strokeColor=#82b366;" parent="1" vertex="1">
          <mxGeometry x="1355" y="535" width="10" height="10" as="geometry" />
        </mxCell>
        <mxCell id="YvcrIMlFE6TmQWKb2FMt-52" value="" style="ellipse;whiteSpace=wrap;html=1;aspect=fixed;fillColor=#ffe6cc;strokeColor=#d79b00;" parent="1" vertex="1">
          <mxGeometry x="1515" y="535" width="10" height="10" as="geometry" />
        </mxCell>
        <mxCell id="YvcrIMlFE6TmQWKb2FMt-54" value="" style="ellipse;whiteSpace=wrap;html=1;aspect=fixed;fillColor=#dae8fc;strokeColor=#6c8ebf;" parent="1" vertex="1">
          <mxGeometry x="1235" y="572.5" width="10" height="10" as="geometry" />
        </mxCell>
        <mxCell id="YvcrIMlFE6TmQWKb2FMt-55" value="" style="ellipse;whiteSpace=wrap;html=1;aspect=fixed;fillColor=#d5e8d4;strokeColor=#82b366;" parent="1" vertex="1">
          <mxGeometry x="1235" y="577.5" width="10" height="10" as="geometry" />
        </mxCell>
        <mxCell id="YvcrIMlFE6TmQWKb2FMt-56" value="" style="ellipse;whiteSpace=wrap;html=1;aspect=fixed;fillColor=#ffe6cc;strokeColor=#d79b00;" parent="1" vertex="1">
          <mxGeometry x="1315" y="575" width="10" height="10" as="geometry" />
        </mxCell>
        <mxCell id="YvcrIMlFE6TmQWKb2FMt-58" value="" style="ellipse;whiteSpace=wrap;html=1;aspect=fixed;fillColor=#dae8fc;strokeColor=#6c8ebf;" parent="1" vertex="1">
          <mxGeometry x="1235" y="615" width="10" height="10" as="geometry" />
        </mxCell>
        <mxCell id="YvcrIMlFE6TmQWKb2FMt-59" value="" style="ellipse;whiteSpace=wrap;html=1;aspect=fixed;fillColor=#d5e8d4;strokeColor=#82b366;" parent="1" vertex="1">
          <mxGeometry x="1249" y="615" width="10" height="10" as="geometry" />
        </mxCell>
        <mxCell id="YvcrIMlFE6TmQWKb2FMt-60" value="" style="ellipse;whiteSpace=wrap;html=1;aspect=fixed;fillColor=#ffe6cc;strokeColor=#d79b00;" parent="1" vertex="1">
          <mxGeometry x="1355" y="615" width="10" height="10" as="geometry" />
        </mxCell>
        <mxCell id="YvcrIMlFE6TmQWKb2FMt-62" value="" style="ellipse;whiteSpace=wrap;html=1;aspect=fixed;fillColor=#dae8fc;strokeColor=#6c8ebf;" parent="1" vertex="1">
          <mxGeometry x="1235" y="655" width="10" height="10" as="geometry" />
        </mxCell>
        <mxCell id="YvcrIMlFE6TmQWKb2FMt-63" value="" style="ellipse;whiteSpace=wrap;html=1;aspect=fixed;fillColor=#d5e8d4;strokeColor=#82b366;" parent="1" vertex="1">
          <mxGeometry x="1261" y="655" width="10" height="10" as="geometry" />
        </mxCell>
        <mxCell id="YvcrIMlFE6TmQWKb2FMt-64" value="" style="ellipse;whiteSpace=wrap;html=1;aspect=fixed;fillColor=#ffe6cc;strokeColor=#d79b00;" parent="1" vertex="1">
          <mxGeometry x="1395" y="655" width="10" height="10" as="geometry" />
        </mxCell>
        <mxCell id="YvcrIMlFE6TmQWKb2FMt-66" value="" style="endArrow=none;html=1;rounded=0;" parent="1" edge="1">
          <mxGeometry width="50" height="50" relative="1" as="geometry">
            <mxPoint x="1760" y="460" as="sourcePoint" />
            <mxPoint x="1800" y="460" as="targetPoint" />
          </mxGeometry>
        </mxCell>
        <mxCell id="HiJafMp_2H3N5609B-Ka-1" value="" style="endArrow=none;html=1;rounded=0;" parent="1" edge="1">
          <mxGeometry width="50" height="50" relative="1" as="geometry">
            <mxPoint x="1280" y="460" as="sourcePoint" />
            <mxPoint x="1440" y="460" as="targetPoint" />
          </mxGeometry>
        </mxCell>
        <mxCell id="YvcrIMlFE6TmQWKb2FMt-43" value="" style="ellipse;whiteSpace=wrap;html=1;aspect=fixed;fillColor=#d5e8d4;strokeColor=#82b366;" parent="1" vertex="1">
          <mxGeometry x="1275" y="455" width="10" height="10" as="geometry" />
        </mxCell>
        <mxCell id="YvcrIMlFE6TmQWKb2FMt-44" value="" style="ellipse;whiteSpace=wrap;html=1;aspect=fixed;fillColor=#ffe6cc;strokeColor=#d79b00;" parent="1" vertex="1">
          <mxGeometry x="1435" y="455" width="10" height="10" as="geometry" />
        </mxCell>
        <mxCell id="KRnOeIRjHwMqtbYI17_--1" value="phase 2" style="text;html=1;strokeColor=none;fillColor=none;align=center;verticalAlign=middle;whiteSpace=wrap;rounded=0;fontColor=#D79B00;fontStyle=2;fontSize=11;rotation=334;labelBackgroundColor=default;" parent="1" vertex="1">
          <mxGeometry x="158.59" y="389.53" width="42" height="10" as="geometry" />
        </mxCell>
        <mxCell id="KRnOeIRjHwMqtbYI17_--2" value="phase 3" style="text;html=1;strokeColor=none;fillColor=none;align=center;verticalAlign=middle;whiteSpace=wrap;rounded=0;fontColor=#6C8EBF;fontStyle=2;fontSize=11;rotation=297;labelBackgroundColor=default;" parent="1" vertex="1">
          <mxGeometry x="161" y="310" width="42" height="10" as="geometry" />
        </mxCell>
        <mxCell id="KRnOeIRjHwMqtbYI17_--3" value="phase 2" style="text;html=1;strokeColor=none;fillColor=none;align=center;verticalAlign=middle;whiteSpace=wrap;rounded=0;fontColor=#D79B00;fontStyle=2;fontSize=11;rotation=334;labelBackgroundColor=default;" parent="1" vertex="1">
          <mxGeometry x="734" y="437" width="42" height="10" as="geometry" />
        </mxCell>
        <mxCell id="KRnOeIRjHwMqtbYI17_--4" value="phase 3" style="text;html=1;strokeColor=none;fillColor=none;align=center;verticalAlign=middle;whiteSpace=wrap;rounded=0;fontColor=#6C8EBF;fontStyle=2;fontSize=11;rotation=287;labelBackgroundColor=default;" parent="1" vertex="1">
          <mxGeometry x="703" y="320" width="42" height="10" as="geometry" />
        </mxCell>
        <mxCell id="KRnOeIRjHwMqtbYI17_--5" value="phase 1" style="text;html=1;strokeColor=none;fillColor=none;align=center;verticalAlign=middle;whiteSpace=wrap;rounded=0;fontColor=#6C8EBF;fontStyle=2;fontSize=11;rotation=19;labelBackgroundColor=default;" parent="1" vertex="1">
          <mxGeometry x="750" y="371" width="42" height="10" as="geometry" />
        </mxCell>
        <mxCell id="KRnOeIRjHwMqtbYI17_--6" value="" style="endArrow=classicThin;html=1;curved=1;fillColor=#ffe6cc;strokeColor=#d79b00;startArrow=baseDash;startFill=0;fontColor=#D79B00;endFill=1;" parent="1" edge="1">
          <mxGeometry width="50" height="50" relative="1" as="geometry">
            <mxPoint x="80" y="320" as="sourcePoint" />
            <mxPoint x="320" y="400" as="targetPoint" />
          </mxGeometry>
        </mxCell>
        <mxCell id="KRnOeIRjHwMqtbYI17_--7" value="a" style="edgeLabel;html=1;align=center;verticalAlign=middle;resizable=0;points=[];fontColor=#D79B00;" parent="KRnOeIRjHwMqtbYI17_--6" vertex="1" connectable="0">
          <mxGeometry x="0.1049" relative="1" as="geometry">
            <mxPoint x="-17" y="-6" as="offset" />
          </mxGeometry>
        </mxCell>
        <mxCell id="KRnOeIRjHwMqtbYI17_--8" value="" style="endArrow=classicThin;html=1;fontColor=#D79B00;curved=1;fillColor=#ffe6cc;strokeColor=#d79b00;dashed=1;endFill=1;" parent="1" edge="1">
          <mxGeometry width="50" height="50" relative="1" as="geometry">
            <mxPoint x="231" y="370" as="sourcePoint" />
            <mxPoint x="291" y="340" as="targetPoint" />
          </mxGeometry>
        </mxCell>
        <mxCell id="Mm2e0ssDL3wzc5kreC6N-3" value="C1" style="ellipse;whiteSpace=wrap;html=1;aspect=fixed;fillColor=#dae8fc;strokeColor=#6c8ebf;align=left;labelPosition=right;verticalLabelPosition=middle;verticalAlign=middle;spacingLeft=5;spacing=0;spacingTop=0;" vertex="1" parent="1">
          <mxGeometry x="1160" y="150" width="10" height="10" as="geometry" />
        </mxCell>
        <mxCell id="Mm2e0ssDL3wzc5kreC6N-4" value="C2" style="ellipse;whiteSpace=wrap;html=1;aspect=fixed;fillColor=#d5e8d4;strokeColor=#82b366;labelPosition=right;verticalLabelPosition=middle;align=left;verticalAlign=middle;spacingLeft=5;spacing=0;spacingTop=0;" vertex="1" parent="1">
          <mxGeometry x="1160" y="190" width="10" height="10" as="geometry" />
        </mxCell>
        <mxCell id="Mm2e0ssDL3wzc5kreC6N-5" value="C3" style="ellipse;whiteSpace=wrap;html=1;aspect=fixed;fillColor=#ffe6cc;strokeColor=#d79b00;labelPosition=right;verticalLabelPosition=middle;align=left;verticalAlign=middle;spacing=0;spacingLeft=5;" vertex="1" parent="1">
          <mxGeometry x="1160" y="230" width="10" height="10" as="geometry" />
        </mxCell>
        <mxCell id="Mm2e0ssDL3wzc5kreC6N-6" value="" style="endArrow=none;html=1;rounded=0;" edge="1" parent="1">
          <mxGeometry width="50" height="50" relative="1" as="geometry">
            <mxPoint x="1320" y="1080" as="sourcePoint" />
            <mxPoint x="1440" y="1080" as="targetPoint" />
          </mxGeometry>
        </mxCell>
        <mxCell id="Mm2e0ssDL3wzc5kreC6N-7" value="" style="curved=1;endArrow=none;html=1;rounded=0;endFill=0;" edge="1" parent="1">
          <mxGeometry width="50" height="50" relative="1" as="geometry">
            <mxPoint x="1440" y="1080" as="sourcePoint" />
            <mxPoint x="1560" y="1080" as="targetPoint" />
            <Array as="points">
              <mxPoint x="1500" y="1040" />
            </Array>
          </mxGeometry>
        </mxCell>
        <mxCell id="Mm2e0ssDL3wzc5kreC6N-8" value="" style="endArrow=none;dashed=1;html=1;rounded=0;fillColor=#f5f5f5;strokeColor=#C2C2C2;" edge="1" parent="1">
          <mxGeometry width="50" height="50" relative="1" as="geometry">
            <mxPoint x="1320" y="1300" as="sourcePoint" />
            <mxPoint x="1320" y="1040" as="targetPoint" />
          </mxGeometry>
        </mxCell>
        <mxCell id="Mm2e0ssDL3wzc5kreC6N-9" value="" style="curved=1;endArrow=none;html=1;rounded=0;endFill=0;" edge="1" parent="1">
          <mxGeometry width="50" height="50" relative="1" as="geometry">
            <mxPoint x="1260" y="1080" as="sourcePoint" />
            <mxPoint x="1320" y="1080" as="targetPoint" />
            <Array as="points">
              <mxPoint x="1290" y="1040" />
            </Array>
          </mxGeometry>
        </mxCell>
        <mxCell id="Mm2e0ssDL3wzc5kreC6N-10" value="" style="endArrow=none;html=1;rounded=0;" edge="1" parent="1">
          <mxGeometry width="50" height="50" relative="1" as="geometry">
            <mxPoint x="1560" y="1080" as="sourcePoint" />
            <mxPoint x="1680" y="1080" as="targetPoint" />
          </mxGeometry>
        </mxCell>
        <mxCell id="Mm2e0ssDL3wzc5kreC6N-11" value="" style="curved=1;endArrow=none;html=1;rounded=0;endFill=0;" edge="1" parent="1">
          <mxGeometry width="50" height="50" relative="1" as="geometry">
            <mxPoint x="1680" y="1080" as="sourcePoint" />
            <mxPoint x="1800" y="1080" as="targetPoint" />
            <Array as="points">
              <mxPoint x="1740" y="1040" />
            </Array>
          </mxGeometry>
        </mxCell>
        <mxCell id="Mm2e0ssDL3wzc5kreC6N-16" value="" style="curved=1;endArrow=none;html=1;rounded=0;endFill=0;" edge="1" parent="1">
          <mxGeometry width="50" height="50" relative="1" as="geometry">
            <mxPoint x="1560" y="1200" as="sourcePoint" />
            <mxPoint x="1680" y="1200" as="targetPoint" />
            <Array as="points">
              <mxPoint x="1620" y="1160" />
            </Array>
          </mxGeometry>
        </mxCell>
        <mxCell id="Mm2e0ssDL3wzc5kreC6N-17" value="" style="endArrow=none;html=1;rounded=0;" edge="1" parent="1">
          <mxGeometry width="50" height="50" relative="1" as="geometry">
            <mxPoint x="1680" y="1200" as="sourcePoint" />
            <mxPoint x="1800" y="1200" as="targetPoint" />
          </mxGeometry>
        </mxCell>
        <mxCell id="Mm2e0ssDL3wzc5kreC6N-24" value="" style="endArrow=none;dashed=1;html=1;rounded=0;fillColor=#f5f5f5;strokeColor=#C2C2C2;" edge="1" parent="1">
          <mxGeometry width="50" height="50" relative="1" as="geometry">
            <mxPoint x="1260" y="1300" as="sourcePoint" />
            <mxPoint x="1260" y="1040" as="targetPoint" />
          </mxGeometry>
        </mxCell>
        <mxCell id="Mm2e0ssDL3wzc5kreC6N-25" value="" style="endArrow=none;dashed=1;html=1;rounded=0;fillColor=#f5f5f5;strokeColor=#C2C2C2;" edge="1" parent="1">
          <mxGeometry width="50" height="50" relative="1" as="geometry">
            <mxPoint x="1440" y="1300" as="sourcePoint" />
            <mxPoint x="1440" y="1040" as="targetPoint" />
          </mxGeometry>
        </mxCell>
        <mxCell id="Mm2e0ssDL3wzc5kreC6N-26" value="" style="endArrow=none;dashed=1;html=1;rounded=0;fillColor=#f5f5f5;strokeColor=#C2C2C2;" edge="1" parent="1">
          <mxGeometry width="50" height="50" relative="1" as="geometry">
            <mxPoint x="1560" y="1300" as="sourcePoint" />
            <mxPoint x="1560" y="1040" as="targetPoint" />
          </mxGeometry>
        </mxCell>
        <mxCell id="Mm2e0ssDL3wzc5kreC6N-27" value="" style="endArrow=none;dashed=1;html=1;rounded=0;fillColor=#f5f5f5;strokeColor=#C2C2C2;" edge="1" parent="1">
          <mxGeometry width="50" height="50" relative="1" as="geometry">
            <mxPoint x="1680" y="1300" as="sourcePoint" />
            <mxPoint x="1680" y="1040" as="targetPoint" />
          </mxGeometry>
        </mxCell>
        <mxCell id="Mm2e0ssDL3wzc5kreC6N-28" value="" style="endArrow=none;dashed=1;html=1;rounded=0;fillColor=#f5f5f5;strokeColor=#C2C2C2;" edge="1" parent="1">
          <mxGeometry width="50" height="50" relative="1" as="geometry">
            <mxPoint x="1800" y="1300" as="sourcePoint" />
            <mxPoint x="1800" y="1040" as="targetPoint" />
          </mxGeometry>
        </mxCell>
        <mxCell id="Mm2e0ssDL3wzc5kreC6N-31" value="" style="endArrow=none;html=1;rounded=0;" edge="1" parent="1">
          <mxGeometry width="50" height="50" relative="1" as="geometry">
            <mxPoint x="1440" y="1200" as="sourcePoint" />
            <mxPoint x="1560" y="1200" as="targetPoint" />
          </mxGeometry>
        </mxCell>
        <mxCell id="Mm2e0ssDL3wzc5kreC6N-36" value="" style="curved=1;endArrow=none;html=1;rounded=0;endFill=0;" edge="1" parent="1">
          <mxGeometry width="50" height="50" relative="1" as="geometry">
            <mxPoint x="1320" y="1200" as="sourcePoint" />
            <mxPoint x="1440" y="1200" as="targetPoint" />
            <Array as="points">
              <mxPoint x="1380" y="1160" />
            </Array>
          </mxGeometry>
        </mxCell>
        <mxCell id="Mm2e0ssDL3wzc5kreC6N-39" value="" style="endArrow=none;html=1;rounded=0;" edge="1" parent="1">
          <mxGeometry width="50" height="50" relative="1" as="geometry">
            <mxPoint x="1260" y="1200" as="sourcePoint" />
            <mxPoint x="1320" y="1200" as="targetPoint" />
          </mxGeometry>
        </mxCell>
        <mxCell id="Mm2e0ssDL3wzc5kreC6N-46" value="" style="ellipse;whiteSpace=wrap;html=1;aspect=fixed;fillColor=#dae8fc;strokeColor=#6c8ebf;" vertex="1" parent="1">
          <mxGeometry x="1255" y="1075" width="10" height="10" as="geometry" />
        </mxCell>
        <mxCell id="Mm2e0ssDL3wzc5kreC6N-47" value="" style="ellipse;whiteSpace=wrap;html=1;aspect=fixed;fillColor=#d5e8d4;strokeColor=#82b366;" vertex="1" parent="1">
          <mxGeometry x="1315" y="1075" width="10" height="10" as="geometry" />
        </mxCell>
        <mxCell id="Mm2e0ssDL3wzc5kreC6N-48" value="" style="ellipse;whiteSpace=wrap;html=1;aspect=fixed;fillColor=#ffe6cc;strokeColor=#d79b00;" vertex="1" parent="1">
          <mxGeometry x="1435" y="1075" width="10" height="10" as="geometry" />
        </mxCell>
        <mxCell id="Mm2e0ssDL3wzc5kreC6N-55" value="" style="ellipse;whiteSpace=wrap;html=1;aspect=fixed;fillColor=#dae8fc;strokeColor=#6c8ebf;" vertex="1" parent="1">
          <mxGeometry x="1255" y="1192.5" width="10" height="10" as="geometry" />
        </mxCell>
        <mxCell id="Mm2e0ssDL3wzc5kreC6N-56" value="" style="ellipse;whiteSpace=wrap;html=1;aspect=fixed;fillColor=#d5e8d4;strokeColor=#82b366;" vertex="1" parent="1">
          <mxGeometry x="1255" y="1197.5" width="10" height="10" as="geometry" />
        </mxCell>
        <mxCell id="Mm2e0ssDL3wzc5kreC6N-57" value="" style="ellipse;whiteSpace=wrap;html=1;aspect=fixed;fillColor=#ffe6cc;strokeColor=#d79b00;" vertex="1" parent="1">
          <mxGeometry x="1315" y="1195" width="10" height="10" as="geometry" />
        </mxCell>
        <mxCell id="Mm2e0ssDL3wzc5kreC6N-64" value="" style="curved=1;endArrow=none;html=1;rounded=0;endFill=0;" edge="1" parent="1">
          <mxGeometry width="50" height="50" relative="1" as="geometry">
            <mxPoint x="1560" y="1120" as="sourcePoint" />
            <mxPoint x="1680" y="1120" as="targetPoint" />
            <Array as="points">
              <mxPoint x="1620" y="1080" />
            </Array>
          </mxGeometry>
        </mxCell>
        <mxCell id="Mm2e0ssDL3wzc5kreC6N-65" value="" style="endArrow=none;html=1;rounded=0;" edge="1" parent="1">
          <mxGeometry width="50" height="50" relative="1" as="geometry">
            <mxPoint x="1680" y="1120" as="sourcePoint" />
            <mxPoint x="1800" y="1120" as="targetPoint" />
          </mxGeometry>
        </mxCell>
        <mxCell id="Mm2e0ssDL3wzc5kreC6N-66" value="" style="endArrow=none;html=1;rounded=0;" edge="1" parent="1">
          <mxGeometry width="50" height="50" relative="1" as="geometry">
            <mxPoint x="1440" y="1120" as="sourcePoint" />
            <mxPoint x="1560" y="1120" as="targetPoint" />
          </mxGeometry>
        </mxCell>
        <mxCell id="Mm2e0ssDL3wzc5kreC6N-67" value="" style="curved=1;endArrow=none;html=1;rounded=0;endFill=0;" edge="1" parent="1">
          <mxGeometry width="50" height="50" relative="1" as="geometry">
            <mxPoint x="1320" y="1120" as="sourcePoint" />
            <mxPoint x="1440" y="1120" as="targetPoint" />
            <Array as="points">
              <mxPoint x="1380" y="1080" />
            </Array>
          </mxGeometry>
        </mxCell>
        <mxCell id="Mm2e0ssDL3wzc5kreC6N-68" value="" style="endArrow=none;html=1;rounded=0;" edge="1" parent="1">
          <mxGeometry width="50" height="50" relative="1" as="geometry">
            <mxPoint x="1260" y="1120" as="sourcePoint" />
            <mxPoint x="1320" y="1120" as="targetPoint" />
          </mxGeometry>
        </mxCell>
        <mxCell id="Mm2e0ssDL3wzc5kreC6N-69" value="" style="ellipse;whiteSpace=wrap;html=1;aspect=fixed;fillColor=#dae8fc;strokeColor=#6c8ebf;" vertex="1" parent="1">
          <mxGeometry x="1255" y="1112.5" width="10" height="10" as="geometry" />
        </mxCell>
        <mxCell id="Mm2e0ssDL3wzc5kreC6N-70" value="" style="ellipse;whiteSpace=wrap;html=1;aspect=fixed;fillColor=#d5e8d4;strokeColor=#82b366;" vertex="1" parent="1">
          <mxGeometry x="1255" y="1117.5" width="10" height="10" as="geometry" />
        </mxCell>
        <mxCell id="Mm2e0ssDL3wzc5kreC6N-71" value="" style="ellipse;whiteSpace=wrap;html=1;aspect=fixed;fillColor=#ffe6cc;strokeColor=#d79b00;" vertex="1" parent="1">
          <mxGeometry x="1315" y="1115" width="10" height="10" as="geometry" />
        </mxCell>
        <mxCell id="Mm2e0ssDL3wzc5kreC6N-72" value="" style="curved=1;endArrow=none;html=1;rounded=0;endFill=0;" edge="1" parent="1">
          <mxGeometry width="50" height="50" relative="1" as="geometry">
            <mxPoint x="1560" y="1280" as="sourcePoint" />
            <mxPoint x="1680" y="1280" as="targetPoint" />
            <Array as="points">
              <mxPoint x="1620" y="1240" />
            </Array>
          </mxGeometry>
        </mxCell>
        <mxCell id="Mm2e0ssDL3wzc5kreC6N-73" value="" style="endArrow=none;html=1;rounded=0;" edge="1" parent="1">
          <mxGeometry width="50" height="50" relative="1" as="geometry">
            <mxPoint x="1680" y="1280" as="sourcePoint" />
            <mxPoint x="1800" y="1280" as="targetPoint" />
          </mxGeometry>
        </mxCell>
        <mxCell id="Mm2e0ssDL3wzc5kreC6N-74" value="" style="endArrow=none;html=1;rounded=0;" edge="1" parent="1">
          <mxGeometry width="50" height="50" relative="1" as="geometry">
            <mxPoint x="1440" y="1280" as="sourcePoint" />
            <mxPoint x="1560" y="1280" as="targetPoint" />
          </mxGeometry>
        </mxCell>
        <mxCell id="Mm2e0ssDL3wzc5kreC6N-75" value="" style="curved=1;endArrow=none;html=1;rounded=0;endFill=0;" edge="1" parent="1">
          <mxGeometry width="50" height="50" relative="1" as="geometry">
            <mxPoint x="1320" y="1280" as="sourcePoint" />
            <mxPoint x="1440" y="1280" as="targetPoint" />
            <Array as="points">
              <mxPoint x="1380" y="1240" />
            </Array>
          </mxGeometry>
        </mxCell>
        <mxCell id="Mm2e0ssDL3wzc5kreC6N-76" value="" style="endArrow=none;html=1;rounded=0;" edge="1" parent="1">
          <mxGeometry width="50" height="50" relative="1" as="geometry">
            <mxPoint x="1260" y="1280" as="sourcePoint" />
            <mxPoint x="1320" y="1280" as="targetPoint" />
          </mxGeometry>
        </mxCell>
        <mxCell id="Mm2e0ssDL3wzc5kreC6N-77" value="" style="ellipse;whiteSpace=wrap;html=1;aspect=fixed;fillColor=#dae8fc;strokeColor=#6c8ebf;" vertex="1" parent="1">
          <mxGeometry x="1255" y="1272.5" width="10" height="10" as="geometry" />
        </mxCell>
        <mxCell id="Mm2e0ssDL3wzc5kreC6N-78" value="" style="ellipse;whiteSpace=wrap;html=1;aspect=fixed;fillColor=#d5e8d4;strokeColor=#82b366;" vertex="1" parent="1">
          <mxGeometry x="1255" y="1277.5" width="10" height="10" as="geometry" />
        </mxCell>
        <mxCell id="Mm2e0ssDL3wzc5kreC6N-79" value="" style="ellipse;whiteSpace=wrap;html=1;aspect=fixed;fillColor=#ffe6cc;strokeColor=#d79b00;" vertex="1" parent="1">
          <mxGeometry x="1315" y="1275" width="10" height="10" as="geometry" />
        </mxCell>
        <mxCell id="Mm2e0ssDL3wzc5kreC6N-80" value="" style="endArrow=none;html=1;rounded=0;" edge="1" parent="1">
          <mxGeometry width="50" height="50" relative="1" as="geometry">
            <mxPoint x="1320" y="1160" as="sourcePoint" />
            <mxPoint x="1440" y="1160" as="targetPoint" />
          </mxGeometry>
        </mxCell>
        <mxCell id="Mm2e0ssDL3wzc5kreC6N-81" value="" style="curved=1;endArrow=none;html=1;rounded=0;endFill=0;" edge="1" parent="1">
          <mxGeometry width="50" height="50" relative="1" as="geometry">
            <mxPoint x="1440" y="1160" as="sourcePoint" />
            <mxPoint x="1560" y="1160" as="targetPoint" />
            <Array as="points">
              <mxPoint x="1500" y="1120" />
            </Array>
          </mxGeometry>
        </mxCell>
        <mxCell id="Mm2e0ssDL3wzc5kreC6N-82" value="" style="curved=1;endArrow=none;html=1;rounded=0;endFill=0;" edge="1" parent="1">
          <mxGeometry width="50" height="50" relative="1" as="geometry">
            <mxPoint x="1260" y="1160" as="sourcePoint" />
            <mxPoint x="1320" y="1160" as="targetPoint" />
            <Array as="points">
              <mxPoint x="1290" y="1120" />
            </Array>
          </mxGeometry>
        </mxCell>
        <mxCell id="Mm2e0ssDL3wzc5kreC6N-83" value="" style="endArrow=none;html=1;rounded=0;" edge="1" parent="1">
          <mxGeometry width="50" height="50" relative="1" as="geometry">
            <mxPoint x="1560" y="1160" as="sourcePoint" />
            <mxPoint x="1680" y="1160" as="targetPoint" />
          </mxGeometry>
        </mxCell>
        <mxCell id="Mm2e0ssDL3wzc5kreC6N-84" value="" style="curved=1;endArrow=none;html=1;rounded=0;endFill=0;" edge="1" parent="1">
          <mxGeometry width="50" height="50" relative="1" as="geometry">
            <mxPoint x="1680" y="1160" as="sourcePoint" />
            <mxPoint x="1800" y="1160" as="targetPoint" />
            <Array as="points">
              <mxPoint x="1740" y="1120" />
            </Array>
          </mxGeometry>
        </mxCell>
        <mxCell id="Mm2e0ssDL3wzc5kreC6N-85" value="" style="ellipse;whiteSpace=wrap;html=1;aspect=fixed;fillColor=#dae8fc;strokeColor=#6c8ebf;" vertex="1" parent="1">
          <mxGeometry x="1255" y="1155" width="10" height="10" as="geometry" />
        </mxCell>
        <mxCell id="Mm2e0ssDL3wzc5kreC6N-86" value="" style="ellipse;whiteSpace=wrap;html=1;aspect=fixed;fillColor=#d5e8d4;strokeColor=#82b366;" vertex="1" parent="1">
          <mxGeometry x="1315" y="1155" width="10" height="10" as="geometry" />
        </mxCell>
        <mxCell id="Mm2e0ssDL3wzc5kreC6N-87" value="" style="ellipse;whiteSpace=wrap;html=1;aspect=fixed;fillColor=#ffe6cc;strokeColor=#d79b00;" vertex="1" parent="1">
          <mxGeometry x="1435" y="1155" width="10" height="10" as="geometry" />
        </mxCell>
        <mxCell id="Mm2e0ssDL3wzc5kreC6N-96" value="" style="endArrow=none;html=1;rounded=0;" edge="1" parent="1">
          <mxGeometry width="50" height="50" relative="1" as="geometry">
            <mxPoint x="1320" y="1240" as="sourcePoint" />
            <mxPoint x="1440" y="1240" as="targetPoint" />
          </mxGeometry>
        </mxCell>
        <mxCell id="Mm2e0ssDL3wzc5kreC6N-97" value="" style="curved=1;endArrow=none;html=1;rounded=0;endFill=0;" edge="1" parent="1">
          <mxGeometry width="50" height="50" relative="1" as="geometry">
            <mxPoint x="1440" y="1240" as="sourcePoint" />
            <mxPoint x="1560" y="1240" as="targetPoint" />
            <Array as="points">
              <mxPoint x="1500" y="1200" />
            </Array>
          </mxGeometry>
        </mxCell>
        <mxCell id="Mm2e0ssDL3wzc5kreC6N-98" value="" style="curved=1;endArrow=none;html=1;rounded=0;endFill=0;" edge="1" parent="1">
          <mxGeometry width="50" height="50" relative="1" as="geometry">
            <mxPoint x="1260" y="1240" as="sourcePoint" />
            <mxPoint x="1320" y="1240" as="targetPoint" />
            <Array as="points">
              <mxPoint x="1290" y="1200" />
            </Array>
          </mxGeometry>
        </mxCell>
        <mxCell id="Mm2e0ssDL3wzc5kreC6N-99" value="" style="endArrow=none;html=1;rounded=0;" edge="1" parent="1">
          <mxGeometry width="50" height="50" relative="1" as="geometry">
            <mxPoint x="1560" y="1240" as="sourcePoint" />
            <mxPoint x="1680" y="1240" as="targetPoint" />
          </mxGeometry>
        </mxCell>
        <mxCell id="Mm2e0ssDL3wzc5kreC6N-100" value="" style="curved=1;endArrow=none;html=1;rounded=0;endFill=0;" edge="1" parent="1">
          <mxGeometry width="50" height="50" relative="1" as="geometry">
            <mxPoint x="1680" y="1240" as="sourcePoint" />
            <mxPoint x="1800" y="1240" as="targetPoint" />
            <Array as="points">
              <mxPoint x="1740" y="1200" />
            </Array>
          </mxGeometry>
        </mxCell>
        <mxCell id="Mm2e0ssDL3wzc5kreC6N-101" value="" style="ellipse;whiteSpace=wrap;html=1;aspect=fixed;fillColor=#dae8fc;strokeColor=#6c8ebf;" vertex="1" parent="1">
          <mxGeometry x="1255" y="1235" width="10" height="10" as="geometry" />
        </mxCell>
        <mxCell id="Mm2e0ssDL3wzc5kreC6N-102" value="" style="ellipse;whiteSpace=wrap;html=1;aspect=fixed;fillColor=#d5e8d4;strokeColor=#82b366;" vertex="1" parent="1">
          <mxGeometry x="1315" y="1235" width="10" height="10" as="geometry" />
        </mxCell>
        <mxCell id="Mm2e0ssDL3wzc5kreC6N-103" value="" style="ellipse;whiteSpace=wrap;html=1;aspect=fixed;fillColor=#ffe6cc;strokeColor=#d79b00;" vertex="1" parent="1">
          <mxGeometry x="1435" y="1235" width="10" height="10" as="geometry" />
        </mxCell>
      </root>
    </mxGraphModel>
  </diagram>
</mxfile>
